<svg width="848" height="407" viewBox="0 0 848 407" fill="none" xmlns="http://www.w3.org/2000/svg">
<path d="M847.103 0.102051H0.102539V406.002H847.103V0.102051Z" fill="#F5F5F5"/>
<path d="M698.07 92.8958C698.07 92.8958 699.665 93.1617 700.817 92.2754C701.969 91.3891 704.451 88.9962 704.982 87.6668C705.514 86.3374 707.818 82.0833 707.818 82.0833C707.818 82.0833 703.653 81.8175 701.792 82.2606C699.931 82.7037 695.056 84.2104 695.056 84.2104L695.322 81.7288L695.765 80.0449L693.815 80.3108L691.954 81.1084L692.309 75.525L692.575 73.9297L688.941 77.0316L687.7 79.07L687.434 80.3994L684.51 76.1454L684.066 79.6904L683.712 82.881L683.357 83.5014L676.533 81.2857L670.063 80.7539H666.784L667.582 84.299L670.684 88.9962L672.988 90.946L675.115 91.8323L677.331 91.5664L677.242 94.0479L680.699 97.6816L680.078 97.9475C680.078 97.9475 676.533 97.3271 674.761 98.2134C672.9 99.1883 672.191 101.138 672.368 102.999C672.545 104.86 673.609 106.544 675.913 106.367C678.217 106.19 679.547 105.304 679.724 103.885C679.901 102.467 678.394 101.138 678.394 101.138C678.394 101.138 678.926 100.252 679.015 100.252C679.103 100.252 682.471 100.518 682.471 100.518C682.471 100.518 682.914 103.62 681.142 105.215C679.369 106.722 678.749 106.456 678.749 106.456C678.749 106.456 678.129 108.494 677.774 109.114C677.419 109.646 676.09 111.064 676.09 111.064C676.09 111.064 676.888 109.558 676.09 108.583C675.292 107.608 673.963 107.253 671.304 108.494C668.645 109.735 667.405 111.064 667.671 113.634C667.848 116.205 669.975 116.47 671.038 116.027C672.102 115.584 673.874 113.812 673.874 113.812C673.874 113.812 676.09 115.673 676.445 115.673C676.888 115.673 680.078 115.141 680.521 114.787C680.965 114.432 681.762 113.723 681.762 113.723L682.117 112.394C682.117 112.394 687.08 111.507 689.384 112.216C691.6 112.925 692.486 113.9 692.486 114.964C692.486 115.939 691.866 117.8 691.866 117.8C691.866 117.8 692.663 119.307 693.55 119.307C694.436 119.218 698.779 117.889 699.753 116.559C700.728 115.23 702.146 113.369 700.374 112.216C698.601 111.064 695.765 111.773 695.765 111.773L695.056 111.951C695.056 111.951 693.815 109.912 693.372 109.469C692.929 109.026 690.713 108.228 690.713 108.228L691.511 107.253V105.126C691.511 105.126 694.259 107.165 697.006 106.456C699.665 105.835 700.197 104.063 700.374 102.29C700.551 100.518 698.779 99.2769 697.449 99.0997C696.12 98.9224 694.702 99.72 694.347 100.784C693.993 101.758 694.259 103.354 694.259 103.354L691.157 99.8973C691.157 99.8973 693.284 99.3655 695.854 97.4157C698.424 95.466 698.247 94.4911 698.07 92.8958Z" fill="#9EE013"/>
<path d="M693.993 87.7554C693.993 87.7554 693.461 88.8189 693.638 90.1483C693.815 91.4777 693.904 92.4526 693.904 92.4526H697.361C697.361 92.4526 697.538 91.8322 696.917 90.0597C696.297 88.2871 695.234 87.9326 694.879 87.844C694.79 87.7554 693.993 87.7554 693.993 87.7554Z" fill="#FEFEFE"/>
<path d="M681.585 90.9457C681.585 90.9457 681.674 87.5779 684.155 86.6916C686.637 85.8053 688.143 87.2234 688.586 87.5779C689.03 87.9324 690.093 90.2367 690.182 91.3002C690.27 92.3637 690.802 92.541 689.295 92.6296C687.877 92.7182 684.244 92.4523 683.623 92.1865C683.003 91.9206 681.585 90.9457 681.585 90.9457Z" fill="#FEFEFE"/>
<path d="M703.919 81.3741C700.728 81.64 698.956 82.2604 698.956 82.2604C698.956 82.2604 699.133 81.1969 699.133 80.6651C699.133 80.222 699.133 78.6267 699.133 78.6267C699.133 78.6267 698.601 78.6267 697.804 78.9812C696.917 79.3357 696.386 80.0447 696.386 80.0447C696.386 80.0447 696.031 79.7788 695.765 79.6902C695.499 79.6016 695.233 79.4243 694.524 79.513C693.815 79.513 692.575 80.222 692.575 80.222C692.575 80.222 692.486 78.7153 692.663 77.0314C692.841 75.4361 693.284 72.9546 693.284 72.9546C693.284 72.9546 692.929 73.2205 692.663 73.3977C692.309 73.575 690.979 74.284 689.118 76.1451C687.346 78.0063 687.168 79.0698 687.168 79.0698C687.168 79.0698 686.459 78.0063 686.105 77.3859C685.75 76.7655 684.51 74.9044 684.51 74.9044C684.51 74.9044 684.244 75.7906 683.978 77.12C683.712 78.4494 683.535 79.9561 683.535 79.9561C683.535 79.9561 683.535 79.7788 682.205 78.9812C680.787 78.0949 679.458 77.8291 679.458 77.8291C679.458 77.8291 679.458 78.2722 679.547 79.1585C679.635 80.0447 679.901 81.64 679.901 81.64C679.901 81.64 676.888 80.6651 673.697 80.3992C670.329 80.1333 666.43 80.222 666.43 80.222C666.43 80.222 665.721 82.7035 668.468 86.6031C671.216 90.5027 672.191 90.9458 673.874 91.8321C675.558 92.7183 676.622 91.9207 676.622 91.9207C676.622 91.9207 676.711 92.1866 676.622 92.6297C676.622 93.0728 676.799 94.1364 677.331 94.7567C677.863 95.3771 679.901 97.5042 679.901 97.5042C679.901 97.5042 676.267 96.6179 673.786 98.3904C671.304 100.163 671.659 102.645 671.925 103.619C672.191 104.594 673.343 106.367 675.204 106.721C677.065 107.076 678.394 106.012 678.394 106.012C678.394 106.012 678.129 106.544 677.951 106.721C677.863 106.899 677.685 107.785 677.42 108.583C677.154 109.38 676.533 110.089 676.533 110.089C676.533 110.089 676.976 108.583 676.09 107.785C675.027 106.81 673.874 107.076 672.988 107.253C672.102 107.43 670.241 108.051 668.823 109.292C667.405 110.532 666.962 111.773 666.962 113.723C666.962 115.673 668.202 116.382 670.152 116.382C672.102 116.382 673.609 114.432 673.609 114.432C673.609 114.432 675.115 115.495 675.824 115.761C676.445 116.027 676.711 116.204 677.951 115.939C679.103 115.673 679.901 115.318 680.965 114.698C682.028 114.077 682.205 113.368 682.205 113.191C682.205 113.014 682.205 112.748 682.383 112.659C682.56 112.571 683.003 112.393 684.598 112.216C686.105 112.039 687.523 112.128 688.409 112.305C689.295 112.482 690.536 112.748 691.245 113.368C691.954 113.9 691.954 115.939 691.954 115.939C691.954 115.939 691.688 116.204 691.688 116.293C691.688 116.382 691.068 118.066 691.954 118.775C692.841 119.484 693.195 119.661 695.322 119.129C697.538 118.597 699.399 117.179 700.197 116.47C700.994 115.85 702.058 114.432 701.703 113.102C701.26 111.862 700.817 111.241 699.31 110.71C697.715 110.178 695.322 111.241 695.322 111.241C695.322 111.241 695.233 110.001 693.993 108.671C692.752 107.342 691.423 107.519 691.423 107.519C691.423 107.519 691.777 106.987 691.954 106.455C692.043 105.924 691.954 105.303 691.954 105.303C691.954 105.303 692.841 105.835 693.638 106.19C694.347 106.455 694.879 106.899 697.272 106.721C699.665 106.633 700.551 104.86 700.817 103.619C701.083 102.379 701.26 99.8971 699.133 98.9222C697.006 97.8587 695.677 98.6563 694.79 99.454C693.904 100.34 693.993 101.758 693.993 101.758C693.993 101.758 693.815 101.67 693.638 101.492C693.461 101.315 693.018 100.872 692.752 100.606C692.486 100.34 692.043 100.074 692.043 100.074C692.043 100.074 692.841 99.8085 693.372 99.5426C693.993 99.2767 694.968 98.6563 696.031 97.7701C697.095 96.8838 698.07 96.0861 698.424 95.1113C698.779 94.1364 698.424 93.3387 698.424 93.3387C698.424 93.3387 698.69 93.4273 699.133 93.3387C699.488 93.2501 700.64 92.8956 701.88 91.8321C703.121 90.6799 704.185 89.4391 705.426 87.6666C706.666 85.8941 708.527 81.4627 708.527 81.4627C708.527 81.4627 707.109 81.1969 703.919 81.3741ZM704.185 87.7552C703.033 89.4391 700.994 91.3889 700.108 92.0093C699.222 92.6297 697.892 92.6297 697.892 92.6297L697.449 92.0979C697.449 92.0979 697.538 91.8321 697.538 91.3003C697.538 90.7685 697.538 90.414 697.006 89.1733C696.386 87.9325 695.145 87.578 695.145 87.578C695.145 87.578 695.056 87.4007 695.056 87.2235C694.968 87.0462 694.702 87.1349 694.613 87.2235C694.436 87.3121 693.815 87.6666 693.55 88.3756C693.284 88.996 693.372 90.2368 693.461 91.3889C693.638 92.4525 693.815 92.7183 694.347 92.807C694.879 92.9842 697.006 92.807 697.006 92.807C697.006 92.807 697.272 93.1615 697.449 93.6932C697.626 94.225 697.626 94.934 697.095 95.643C696.563 96.352 695.765 97.061 694.17 98.2132C692.575 99.2767 690.27 99.7198 690.182 99.6312C690.182 99.6312 690.27 99.7198 690.448 100.074C690.625 100.34 690.714 100.872 690.714 100.872C690.714 100.872 691.334 100.872 691.511 100.961C691.688 101.138 692.486 101.847 693.195 102.556C693.904 103.265 694.879 103.619 694.879 103.619C694.879 103.619 694.436 102.024 695.145 100.517C695.942 99.0108 697.804 99.454 698.513 99.8971C699.222 100.34 700.817 101.936 699.576 104.24C698.335 106.544 695.942 106.101 694.879 105.835C693.815 105.569 691.157 103.708 691.157 103.708C691.157 103.708 691.334 105.303 691.157 106.19C690.979 107.076 690.005 108.317 690.005 108.317C690.005 108.317 692.22 108.494 693.284 109.38C694.347 110.266 694.79 111.95 694.79 111.95L695.322 112.748C695.322 112.748 696.386 111.773 697.538 111.596C698.69 111.419 699.842 111.862 700.285 112.128C700.728 112.393 701.792 113.723 700.108 115.407C698.424 117.179 697.095 117.445 695.765 118.066C694.436 118.686 692.841 118.42 692.575 117.8C692.309 117.179 693.018 116.027 693.018 116.027C693.018 116.027 693.106 113.811 692.309 113.014C691.511 112.128 690.536 111.684 689.739 111.596C689.03 111.507 688.321 111.33 686.459 111.33C684.687 111.33 683.269 111.596 682.648 111.684C682.117 111.773 681.408 112.393 681.408 112.659C681.408 112.925 681.496 113.546 681.053 113.811C680.699 114.077 679.812 114.52 678.926 114.964C678.04 115.407 676.356 115.141 675.913 114.875C675.47 114.609 673.343 113.102 673.343 113.102C673.343 113.102 673.609 113.634 672.279 114.786C670.95 115.939 669.177 115.495 668.911 115.318C668.645 115.229 667.316 114.255 668.114 112.039C668.911 109.823 670.241 109.38 671.836 108.671C673.431 107.962 674.495 107.873 675.027 108.139C675.558 108.405 676.002 109.114 675.736 109.735C675.47 110.355 674.761 111.153 674.761 111.153C674.761 111.153 674.761 111.153 675.204 111.419C675.647 111.684 676.002 111.596 676.179 111.596C676.356 111.507 677.065 110.887 677.508 110.355C677.951 109.823 678.394 108.937 678.572 108.228C678.749 107.608 679.015 106.633 679.281 106.367C679.547 106.101 680.521 106.012 680.521 106.012L680.61 105.835C680.61 105.835 681.762 105.037 682.471 103.176C683.18 101.404 682.914 99.9857 682.914 99.9857C682.914 99.9857 681.939 99.9857 681.319 99.8971C680.699 99.8085 678.926 99.6312 678.394 99.9857C677.863 100.34 677.331 100.783 677.331 100.783C677.331 100.783 677.774 100.961 678.394 101.581C679.103 102.201 679.281 102.999 679.281 103.531C679.281 104.063 678.66 105.835 676.09 105.835C673.52 105.835 672.722 103.531 672.722 102.467C672.722 101.404 673.165 99.8085 674.672 98.9222C676.179 98.0359 677.951 97.9473 679.458 98.3904C680.965 98.7449 683.003 99.5426 683.003 99.5426C683.003 99.5426 682.383 98.6563 682.383 98.4791C682.383 98.3018 682.648 98.2132 682.648 98.2132C682.648 98.2132 682.205 98.1246 681.142 97.4155C680.078 96.7065 679.635 96.0861 678.749 95.1113C677.863 94.1364 677.42 93.0728 677.42 92.2752C677.42 91.4776 677.331 90.6799 677.331 90.6799C677.331 90.6799 677.331 90.6799 676.445 91.1231C675.558 91.5662 674.672 91.3003 674.14 91.1231C673.697 90.8572 671.925 90.2368 669.443 86.6917C666.962 83.1467 667.227 81.3741 667.227 81.3741C667.227 81.3741 669.177 80.6651 675.115 81.7286C681.053 82.7035 684.776 84.6533 684.776 84.6533C684.776 84.6533 684.421 83.767 684.244 83.058C684.067 82.2604 684.067 81.9945 684.155 80.5765C684.244 79.1585 684.598 77.12 684.598 77.12C684.598 77.12 685.219 78.2722 686.016 79.513C686.814 80.7537 687.523 81.4627 687.523 81.4627C687.523 81.4627 687.523 79.9561 687.7 79.513C687.789 79.0698 688.498 78.1836 689.03 77.4745C689.561 76.7655 691.777 74.9044 691.777 74.9044C691.777 74.9044 691.423 76.9428 691.334 78.0949C691.245 79.1585 691.423 81.7286 691.423 81.7286C691.423 81.7286 691.866 81.4627 692.752 81.1082C693.638 80.7537 694.702 80.5765 694.702 80.5765C694.702 80.5765 694.17 81.7286 694.081 82.6149C693.993 83.5012 693.993 85.1851 693.993 85.1851C693.993 85.1851 694.347 85.0078 694.702 84.8306C695.056 84.6533 695.942 84.2102 696.829 83.9443C697.715 83.6784 700.906 82.7921 702.412 82.6149C704.008 82.5263 706.932 82.5263 706.932 82.5263C706.932 82.5263 705.337 86.0713 704.185 87.7552ZM693.993 89.7937C693.904 88.6415 694.436 87.8439 694.436 87.8439C694.436 87.8439 695.854 88.287 696.474 89.2619C697.095 90.1482 697.006 92.1866 697.006 92.1866C697.006 92.1866 695.942 92.2752 695.411 92.3638C694.879 92.3638 694.081 92.2752 694.17 92.0979C694.17 91.8321 694.081 90.9458 693.993 89.7937ZM678.926 100.783C678.926 100.783 679.901 100.695 680.965 100.783C681.851 100.872 682.117 100.872 682.117 100.872C682.117 100.872 682.028 102.113 681.585 103.088C681.142 104.063 680.521 104.772 680.167 105.126C679.724 105.481 679.369 105.569 679.369 105.569C679.369 105.569 680.167 104.949 680.256 103.354C680.344 101.758 678.926 100.783 678.926 100.783Z" fill="#036100"/>
<path d="M683.446 81.1085C683.446 81.1085 683.535 82.0834 683.535 82.4379C683.535 82.7924 683.623 83.0583 683.623 83.0583C683.623 83.0583 682.914 82.6151 682.205 82.3493C681.496 82.0834 680.876 81.9947 680.876 81.9947C680.876 81.9947 680.521 81.0199 680.433 80.3108C680.344 79.5132 680.344 79.1587 680.344 79.1587C680.344 79.1587 681.408 79.6905 682.294 80.3108C683.18 80.8426 683.446 81.1085 683.446 81.1085Z" fill="#FEE700"/>
<path d="M695.411 81.9947C695.411 81.9947 696.563 81.1084 697.183 80.5767C697.804 80.0449 698.247 79.8677 698.247 79.8677C698.247 79.8677 698.158 80.8426 698.07 81.463C697.981 82.172 697.981 82.4378 697.981 82.4378C697.981 82.4378 696.74 82.881 696.297 83.0582C695.854 83.2355 695.322 83.5014 695.322 83.5014C695.322 83.5014 695.145 82.6151 695.411 81.9947Z" fill="#FEE700"/>
<path d="M697.538 89.262C697.538 89.1734 697.626 86.6918 699.31 85.5397C701.083 84.3875 702.324 83.5899 703.742 83.2354C705.16 82.7922 706.4 82.7036 706.4 82.7036C706.4 82.7036 702.146 84.8307 700.374 86.4259C698.69 87.9326 697.538 89.262 697.538 89.262Z" fill="#56B748"/>
<path d="M694.968 91.9206C695.751 91.9206 696.386 91.127 696.386 90.148C696.386 89.1691 695.751 88.3755 694.968 88.3755C694.184 88.3755 693.55 89.1691 693.55 90.148C693.55 91.127 694.184 91.9206 694.968 91.9206Z" fill="#036100"/>
<path d="M689.65 88.5533C688.764 86.5148 686.459 86.0717 685.928 85.9831C685.396 85.8945 683.801 85.8945 682.648 87.3125C681.496 88.7305 681.408 90.6803 681.408 90.6803C681.408 90.6803 681.408 90.6803 681.053 90.6803C680.699 90.6803 680.787 91.1234 680.787 91.212C680.876 91.212 681.23 91.3007 681.496 91.3007C681.762 91.3893 681.851 92.0983 685.396 92.896C688.941 93.6936 690.625 92.6301 690.625 92.6301C690.625 92.6301 690.448 90.503 689.65 88.5533ZM685.485 92.1869C681.319 91.5666 682.117 90.1485 682.117 89.8827C682.117 89.6168 682.737 86.3376 685.928 86.4262C689.207 86.5148 690.182 91.4779 690.004 92.1869C690.093 92.1869 689.65 92.8073 685.485 92.1869Z" fill="#036100"/>
<path d="M685.75 91.4777C686.631 91.4777 687.346 90.6047 687.346 89.5279C687.346 88.4511 686.631 87.5781 685.75 87.5781C684.869 87.5781 684.155 88.4511 684.155 89.5279C684.155 90.6047 684.869 91.4777 685.75 91.4777Z" fill="#036100"/>
<path d="M695.943 95.3772C695.588 95.909 694.081 96.2635 693.195 96.4408C691.954 96.7066 689.473 96.7953 686.459 96.2635C683.535 95.7318 682.383 94.9341 682.205 94.8455C682.028 94.7569 682.117 94.5796 682.294 94.4024C682.471 94.2251 682.383 94.2251 682.56 94.1365C682.649 94.0478 682.649 93.782 682.471 93.782C682.294 93.6933 682.028 93.782 681.851 94.1365C681.674 94.491 681.408 95.0227 681.762 95.2886C682.117 95.5545 683.535 96.1749 683.535 96.1749C683.535 96.1749 683.889 97.2384 684.155 97.7702C684.421 98.3019 684.687 98.6564 684.687 98.6564C684.687 98.6564 685.573 97.8588 685.75 97.5929C685.928 97.327 686.371 97.0612 686.371 97.0612C686.371 97.0612 690.625 97.6815 693.195 97.1498C695.765 96.618 696.12 96.0863 696.297 95.8204C696.652 95.2 696.297 94.7569 695.943 95.3772Z" fill="#036100"/>
<path d="M684.155 96.2632L684.776 97.5926L685.839 96.7063C685.928 96.7063 684.332 96.3518 684.155 96.2632Z" fill="#F6FFB9"/>
<path d="M668.38 81.5518C668.38 81.5518 673.165 83.5902 675.293 85.54C677.42 87.4897 678.04 88.7305 678.04 88.7305C678.04 88.7305 678.749 86.249 676.09 84.4764C673.431 82.7039 671.216 81.5518 668.38 81.5518Z" fill="#56B748"/>
<path d="M690.448 99.9858C690.448 99.9858 690.713 103.708 689.207 106.278C687.7 108.76 687.08 109.646 684.775 110.444C682.471 111.241 682.117 111.773 682.117 111.773C682.117 111.773 684.953 111.685 686.637 110.887C688.321 110.089 689.473 109.558 690.448 108.139C691.422 106.721 691.6 104.949 691.511 104.949C691.511 104.949 691.068 100.606 690.448 99.9858Z" fill="#56B748"/>
<path d="M785.987 108.317C785.721 108.228 785.455 108.228 785.19 108.317C784.924 108.317 784.658 108.139 784.658 107.342C784.658 106.544 784.658 103.531 784.658 103.531C784.569 102.113 783.771 100.961 782.442 100.429C780.758 99.8085 778.897 100.518 777.922 102.201C777.922 101.936 777.834 101.492 777.834 101.138C777.834 100.518 777.568 100.606 777.39 100.606C777.213 100.606 776.504 100.783 776.061 100.783C775.618 100.783 775.175 100.695 774.732 100.695C774.288 100.606 773.845 100.783 773.579 101.315C773.314 101.847 773.491 102.645 773.845 102.91C774.2 103.265 774.997 102.999 775.086 102.91C775.175 102.91 775.352 102.91 775.352 103.176C775.352 103.442 775.352 105.303 775.352 106.19C775.352 106.987 775.441 107.962 775.352 108.139C775.263 108.317 774.997 108.317 774.909 108.317C774.643 108.139 774.288 108.139 774.023 108.317C773.491 108.583 773.314 109.203 773.579 109.823C773.845 110.266 774.288 110.621 774.732 110.532C774.909 110.532 775.618 110.444 776.77 110.444C777.922 110.355 778.365 110.621 778.365 110.621C778.897 110.71 779.34 110.444 779.606 109.823C779.872 109.203 779.606 108.583 779.074 108.317C778.897 108.139 778.454 107.962 778.454 107.696C778.454 107.519 778.454 106.012 778.454 104.772C778.454 103.531 779.606 102.91 780.404 102.91C781.201 102.91 781.644 103.885 781.644 104.417C781.644 104.949 781.644 107.253 781.644 107.785C781.644 108.228 781.379 108.228 781.113 108.228C781.113 108.228 781.113 108.228 781.024 108.228C780.935 108.228 780.847 108.228 780.758 108.317C780.226 108.583 780.049 109.203 780.315 109.823C780.581 110.355 781.113 110.621 781.556 110.532C781.822 110.532 782.442 110.355 783.328 110.355C783.949 110.355 784.569 110.444 784.924 110.532C785.455 110.71 786.076 110.444 786.342 109.823C786.696 109.203 786.519 108.583 785.987 108.317Z" fill="black"/>
<path d="M772.427 108.317C772.25 108.228 771.984 108.228 771.807 108.317C771.452 108.405 771.364 108.051 771.364 107.874C771.364 107.608 771.364 101.758 771.364 101.227C771.364 100.783 771.186 100.429 770.212 100.606C769.237 100.783 769.059 100.783 768.794 100.695C768.528 100.606 767.641 100.34 767.021 100.695C766.312 101.049 766.135 101.936 766.578 102.645C767.021 103.354 767.73 102.822 767.907 102.822C768.085 102.822 768.35 102.733 768.35 103.708C768.35 104.594 768.35 107.342 768.35 107.696C768.35 107.962 768.439 108.405 767.819 108.317C767.553 108.228 767.198 108.139 766.932 108.317C766.401 108.583 766.223 109.203 766.489 109.823C766.755 110.355 767.376 110.621 767.819 110.532C768.173 110.532 768.528 110.532 769.414 110.444C770.477 110.355 771.275 110.621 771.718 110.532C772.25 110.71 772.87 110.444 773.136 109.823C773.225 109.203 772.959 108.583 772.427 108.317Z" fill="black"/>
<path d="M765.16 108.317C764.894 108.228 764.628 108.228 764.451 108.317C764.185 108.317 764.096 108.051 764.096 107.874C764.096 107.608 764.096 98.3909 764.096 97.9477C764.096 97.5046 763.919 97.1501 762.944 97.3274C761.969 97.5046 761.792 97.5046 761.526 97.416C761.26 97.3274 760.374 97.0615 759.754 97.416C759.045 97.7705 758.867 98.6568 759.311 99.3658C759.754 100.075 760.463 99.543 760.64 99.543C760.817 99.543 761.083 99.4544 761.083 100.429C761.083 101.316 761.083 107.431 761.083 107.697C761.083 107.963 761.172 108.406 760.551 108.317C760.285 108.228 760.02 108.228 759.754 108.317C759.222 108.583 759.045 109.203 759.311 109.824C759.488 110.267 759.931 110.533 760.374 110.533C760.374 110.533 760.374 110.533 760.463 110.533C760.906 110.533 761.172 110.533 762.235 110.355C763.299 110.267 764.362 110.533 764.805 110.533C765.249 110.533 765.692 110.267 765.958 109.735C765.958 109.203 765.692 108.494 765.16 108.317Z" fill="black"/>
<path d="M717.656 103.531C717.124 103.531 715.795 103.797 715.086 103.708C714.465 103.708 713.402 103.531 712.87 103.442C712.782 103.442 712.693 103.442 712.693 103.442C711.984 103.442 711.364 103.974 711.364 104.683C711.364 105.392 711.984 105.924 712.693 105.924C712.782 105.924 712.959 105.924 713.047 105.835C713.313 105.924 713.668 106.19 713.668 106.455C713.668 106.81 713.756 108.228 711.895 108.228C709.946 108.228 709.414 106.278 709.414 103.619C709.414 101.049 710.566 99.7198 712.25 99.7198C713.845 99.7198 714.111 101.226 714.2 101.847C714.2 101.935 714.2 101.935 714.2 101.935C714.377 102.379 714.909 102.733 715.618 102.733C716.415 102.733 717.124 102.29 717.124 101.67C717.124 101.315 717.213 98.5677 717.213 98.1246C717.213 97.5042 716.681 97.061 716.061 97.061C715.44 97.061 714.909 97.5042 714.909 98.1246C714.909 98.2132 714.909 98.2132 714.909 98.3018C714.377 97.8587 713.313 97.061 711.807 96.8838C709.591 96.6179 708.173 97.77 707.021 99.0108C705.869 100.252 705.426 103.176 705.78 106.012C706.135 108.76 708.705 110.798 710.92 110.798C713.225 110.798 713.845 110.001 714.111 109.823C714.2 109.735 714.288 109.823 714.377 109.823C714.465 110.355 715.086 110.798 715.795 110.798C716.592 110.798 717.213 110.355 717.213 109.735C717.302 109.469 717.124 107.076 717.124 106.721C717.124 106.367 717.302 106.19 717.567 106.101C717.656 106.101 717.656 106.101 717.745 106.101C718.542 106.101 719.163 105.835 719.163 104.772C719.074 104.151 718.454 103.531 717.656 103.531Z" fill="black"/>
<path d="M727.76 100.606C726.43 100.163 725.455 100.34 725.012 100.872C724.48 101.315 724.214 101.581 724.037 102.201C723.86 102.733 723.683 102.999 723.683 102.999C723.683 102.999 723.683 101.758 723.683 101.138C723.683 100.518 722.885 100.783 722.531 100.783C722.265 100.783 721.29 100.783 720.847 100.783C720.758 100.783 720.581 100.695 720.492 100.695C719.872 100.695 719.251 101.227 719.251 101.847C719.251 102.467 719.783 102.999 720.492 102.999C720.669 102.999 720.758 102.999 720.935 102.91C721.113 102.999 721.201 102.999 721.29 103.088C721.378 103.265 721.29 107.519 721.29 107.962C721.29 108.228 721.113 108.317 721.024 108.317C720.847 108.228 720.669 108.139 720.492 108.139C719.96 108.139 719.429 108.671 719.429 109.38C719.429 110.089 719.872 110.621 720.492 110.621C720.581 110.621 720.669 110.621 720.758 110.532C721.113 110.532 721.91 110.444 722.974 110.444C724.48 110.444 725.367 110.621 725.632 110.621C725.721 110.621 725.721 110.621 725.81 110.621C726.43 110.621 726.873 110.089 726.873 109.469C726.873 108.937 726.519 108.494 726.076 108.317H725.898C725.898 108.317 725.898 108.317 725.81 108.317C725.632 108.317 725.455 108.405 725.367 108.405C725.012 108.494 724.746 108.494 724.658 108.405C724.569 108.317 724.48 107.076 724.48 105.658C724.48 104.24 724.923 103.354 725.367 102.999C725.81 102.556 726.43 102.556 726.519 102.733C726.519 102.733 726.519 102.822 726.519 102.91C726.43 103.088 726.341 103.265 726.341 103.442C726.341 104.063 726.962 104.594 727.848 104.594C728.646 104.594 729.355 104.063 729.355 103.442C729.266 102.822 729.355 101.227 727.76 100.606Z" fill="black"/>
<path d="M739.192 105.392C739.281 104.506 739.192 100.341 734.761 100.429C730.33 100.518 729.887 103.442 729.621 104.417C729.355 105.392 729.355 109.558 732.811 110.621C736.179 111.685 737.686 110.089 738.129 109.735C738.572 109.38 738.838 108.849 738.838 108.849C738.838 108.849 738.838 108.849 738.838 108.76C739.015 108.583 739.015 108.406 739.015 108.228C739.015 107.519 738.395 106.988 737.686 106.988C737.154 106.988 736.799 107.253 736.534 107.608C736.179 107.962 735.47 108.406 734.761 108.494C734.229 108.494 732.9 108.14 732.811 106.899C732.811 106.544 732.811 106.278 732.723 106.101C733.875 106.101 736.002 106.101 736.888 106.101C738.217 106.013 739.104 106.278 739.192 105.392ZM736.179 104.063H732.988C732.988 103.974 732.988 103.974 732.988 103.886C732.988 103.088 733.697 102.468 734.584 102.468C735.47 102.468 736.179 103.088 736.179 103.886C736.179 103.974 736.179 103.974 736.179 104.063Z" fill="black"/>
<path d="M758.158 108.317C757.981 108.228 757.715 108.228 757.538 108.317C757.272 108.317 757.006 108.317 757.006 107.608C757.006 106.899 757.006 104.329 757.006 103.531C757.006 102.733 756.297 100.429 754.082 100.429C751.866 100.429 751.6 100.961 751.246 101.227C750.891 101.493 750.359 101.936 750.359 101.936C750.359 101.936 749.384 100.429 747.789 100.429C746.282 100.429 745.396 101.227 745.13 101.581C744.864 101.936 744.51 102.202 744.51 102.202C744.51 102.202 744.51 101.581 744.51 101.227C744.51 100.872 744.421 100.784 743.535 100.784H741.585C741.497 100.784 741.497 100.784 741.408 100.784C740.876 100.695 740.344 100.961 740.079 101.493C739.813 102.113 740.079 102.733 740.61 102.999C740.788 103.088 741.053 103.088 741.319 102.999C741.497 102.999 741.762 102.999 741.851 103.088C742.028 103.265 742.028 103.797 742.028 104.861C742.028 106.013 742.028 107.608 742.028 108.051C742.028 108.406 741.762 108.494 741.497 108.494C741.231 108.406 740.965 108.317 740.699 108.494C740.167 108.671 739.901 109.38 740.167 110.001C740.433 110.621 741.053 110.887 741.585 110.71C742.028 110.621 742.737 110.621 743.358 110.621C743.801 110.621 744.599 110.71 745.042 110.71C745.573 110.799 746.105 110.533 746.282 109.912C746.548 109.292 746.282 108.671 745.751 108.406C745.662 108.317 745.485 108.317 745.396 108.317C745.219 108.228 745.13 108.228 745.13 107.874C745.13 107.519 745.13 105.304 745.13 104.772C745.13 104.329 745.573 102.999 746.903 102.999C748.232 102.999 748.055 104.506 748.055 104.861C748.055 105.215 748.055 107.608 748.055 107.874C748.055 108.051 747.878 108.228 747.789 108.317C747.523 108.406 747.257 108.671 747.08 109.026C746.814 109.646 747.08 110.267 747.612 110.533C747.878 110.621 748.144 110.621 748.409 110.533C748.675 110.444 749.118 110.444 749.562 110.444C750.093 110.444 750.536 110.621 750.891 110.71H750.98C751.423 110.71 751.866 110.444 752.043 109.912C752.309 109.292 752.043 108.671 751.511 108.406C751.423 108.406 751.334 108.317 751.246 108.317C751.246 108.317 751.246 108.317 751.157 108.317C750.98 108.14 750.98 107.962 750.98 107.519C750.98 107.076 750.98 105.038 750.98 104.506C750.98 103.974 751.777 103.088 752.752 103.088C753.727 103.088 753.993 103.797 753.993 105.038C753.993 106.279 753.993 107.785 753.993 107.962C753.993 108.14 753.816 108.317 753.55 108.494C753.284 108.583 753.018 108.849 752.841 109.203C752.575 109.824 752.841 110.444 753.373 110.71C753.638 110.799 753.904 110.799 754.082 110.71C754.17 110.71 754.525 110.621 754.968 110.621C755.588 110.621 756.829 110.71 757.272 110.71C757.804 110.887 758.336 110.533 758.602 110.001C758.956 109.203 758.69 108.494 758.158 108.317Z" fill="black"/>
<path d="M764.894 93.6935L769.148 91.3892L773.579 93.5162V98.2134L769.237 100.518L764.805 98.2134L764.894 93.6935Z" fill="#510909"/>
<path d="M766.135 93.6937L769.237 92.187L772.516 93.6937L769.237 95.2003L766.135 93.6937Z" fill="#BF0600"/>
<path d="M769.591 95.909L773.048 94.2251V97.9474L769.591 99.6313V95.909Z" fill="#750B0B"/>
<path d="M768.971 95.909L765.514 94.2251L765.426 97.9474L768.882 99.6313L768.971 95.909Z" fill="#980E0C"/>
<path d="M686.282 89.3507C686.723 89.3507 687.08 88.9935 687.08 88.553C687.08 88.1125 686.723 87.7554 686.282 87.7554C685.842 87.7554 685.485 88.1125 685.485 88.553C685.485 88.9935 685.842 89.3507 686.282 89.3507Z" fill="#FEFEFE"/>
<path d="M695.322 89.9712C695.714 89.9712 696.031 89.6538 696.031 89.2622C696.031 88.8707 695.714 88.5532 695.322 88.5532C694.93 88.5532 694.613 88.8707 694.613 89.2622C694.613 89.6538 694.93 89.9712 695.322 89.9712Z" fill="#FEFEFE"/>
<path d="M609.113 92.8733C609.025 92.8733 608.848 93.1392 608.848 93.3165C608.848 94.2914 608.759 96.8615 608.759 98.6341C608.759 98.7227 608.848 98.8113 608.936 98.8113C609.291 98.8113 610.177 98.9 610.975 98.9C612.038 98.9 612.659 98.7227 613.013 98.6341C613.899 98.1909 614.342 97.2161 614.342 96.1525C614.342 93.7596 612.659 92.8733 610.177 92.8733C610 92.7847 609.468 92.7847 609.113 92.8733ZM615.406 103.774C615.406 101.382 613.633 100.052 610.354 100.052C610.177 100.052 609.202 100.052 608.936 100.052C608.848 100.052 608.759 100.141 608.759 100.229C608.759 102.002 608.759 104.749 608.848 105.813C608.936 106.256 609.202 106.965 609.645 107.142C610.088 107.408 611.063 107.408 611.772 107.408C613.722 107.408 615.406 106.345 615.406 103.774ZM604.15 91.5439C604.416 91.5439 605.125 91.6326 606.986 91.6326C608.759 91.6326 610.177 91.5439 611.95 91.5439C614.077 91.5439 617.001 92.3416 617.001 95.4435C617.001 97.0388 615.938 98.2796 614.431 98.9C614.342 98.9 614.342 98.9886 614.431 98.9886C616.469 99.5203 618.331 100.761 618.331 103.154C618.331 105.458 616.824 106.965 614.697 107.94C613.368 108.472 611.772 108.738 610.177 108.738C608.936 108.738 605.568 108.56 603.707 108.649C603.53 108.56 603.885 107.674 604.062 107.585C604.505 107.585 604.859 107.497 605.303 107.408C605.923 107.231 606.012 107.054 606.1 106.079C606.189 105.192 606.189 102.179 606.189 100.052C606.189 97.1274 606.189 95.089 606.189 94.1141C606.189 93.3165 605.923 93.1392 605.391 92.962C604.948 92.8733 604.328 92.7847 603.707 92.6961C603.619 92.4302 603.973 91.6326 604.15 91.5439ZM590.059 106.699C590.679 107.142 591.831 107.319 592.806 107.319C594.136 107.319 595.465 107.054 596.706 105.901C598.035 104.749 598.921 102.888 598.921 100.052C598.921 97.3047 597.858 95.0004 595.731 93.7596C594.49 92.962 592.983 92.6961 591.122 92.6961C590.591 92.6961 590.059 92.6961 589.793 92.8733C589.704 92.962 589.527 93.1392 589.527 93.2279C589.438 93.7596 589.438 97.4819 589.438 99.6976C589.438 102.002 589.438 105.104 589.527 105.547C589.527 105.901 589.704 106.522 590.059 106.699ZM584.475 91.5439C584.918 91.5439 586.691 91.6326 587.577 91.6326C589.084 91.6326 590.236 91.5439 593.161 91.5439C595.642 91.5439 597.681 92.1643 599.099 93.4937C600.871 95.0004 601.846 97.1274 601.846 99.7862C601.846 103.509 600.162 105.636 598.478 106.788C596.794 108.029 594.579 108.738 591.477 108.738C589.793 108.738 586.957 108.649 584.564 108.649C584.475 108.472 584.741 107.585 584.918 107.585C585.539 107.497 585.716 107.497 586.071 107.408C586.602 107.231 586.691 106.965 586.78 106.079C586.868 104.395 586.868 102.356 586.868 100.052C586.868 98.4568 586.868 95.1776 586.868 94.2027C586.78 93.3165 586.425 93.1392 585.716 92.962C585.362 92.8733 584.83 92.7847 584.209 92.6961C583.944 92.4302 584.387 91.7212 584.475 91.5439Z" fill="#8E714E"/>
<path d="M554.963 107.674C554.342 107.585 553.899 107.496 553.367 107.23C553.279 107.142 553.19 106.965 553.19 106.876C553.101 105.99 553.101 103.597 553.101 101.913C553.101 100.583 552.924 99.4312 552.304 98.6336C551.683 97.7473 550.709 97.127 549.468 97.127C548.404 97.127 546.986 97.836 545.745 98.8995C545.745 98.8995 545.568 99.0767 545.568 98.8109C545.568 98.545 545.657 98.0132 545.657 97.6587C545.657 97.3042 545.48 97.127 545.48 97.127C544.682 97.4815 542.466 98.0132 541.669 98.1018C541.048 98.1905 540.96 98.8109 541.58 98.9881C542.2 99.1654 542.644 99.4312 542.998 99.6085C543.264 99.7858 543.175 100.052 543.175 100.318C543.175 102.179 543.175 104.926 543.087 106.521C543.087 107.142 542.909 107.319 542.466 107.408H542.555C542.2 107.496 541.934 107.585 541.491 107.585C541.314 107.762 541.314 108.471 541.491 108.648C541.757 108.648 543.175 108.56 544.327 108.56C545.923 108.56 546.809 108.648 547.163 108.648C547.341 108.471 547.341 107.762 547.252 107.585C546.809 107.585 546.454 107.496 546.1 107.408C545.657 107.319 545.568 107.053 545.48 106.61C545.391 105.281 545.391 102.622 545.391 100.761C545.391 100.229 545.568 99.963 545.657 99.8744C546.189 99.3426 547.163 99.0767 547.961 99.0767C548.759 99.0767 549.291 99.3426 549.645 99.6085C550.177 100.052 550.354 100.672 550.443 101.115C550.531 102.179 550.531 104.217 550.531 106.078C550.531 107.053 550.443 107.319 550.088 107.408C549.911 107.496 549.468 107.585 548.936 107.585C548.759 107.762 548.847 108.471 548.936 108.648C549.645 108.648 550.443 108.56 551.683 108.56C553.19 108.56 554.165 108.648 554.608 108.648C554.963 108.56 555.051 107.851 554.963 107.674ZM561.698 98.3677C560.369 98.3677 559.571 99.3426 559.571 100.938C559.571 102.533 560.28 104.394 562.319 104.394C562.673 104.394 563.294 104.217 563.559 103.863C564.003 103.419 564.357 102.533 564.357 101.647C564.357 99.6085 563.382 98.3677 561.698 98.3677ZM561.521 109.18C560.989 109.18 560.723 109.357 560.457 109.446C559.394 110.066 558.951 110.775 558.951 111.484C558.951 112.193 559.217 112.725 559.837 113.257C560.546 113.877 561.521 114.143 562.762 114.143C565.243 114.143 566.395 112.814 566.395 111.484C566.395 110.598 565.952 109.978 564.977 109.623C564.268 109.269 563.028 109.18 561.521 109.18ZM561.698 115.473C560.192 115.473 559.128 115.118 558.242 114.409C557.356 113.7 556.912 112.725 556.912 112.016C556.912 111.839 557.001 111.307 557.444 110.775C557.71 110.51 558.33 109.889 559.66 109.003C559.748 109.003 559.748 108.914 559.748 108.914C559.748 108.826 559.66 108.826 559.66 108.826C558.508 108.383 558.153 107.674 558.065 107.319V107.23C558.065 107.053 557.976 106.965 558.242 106.787C558.419 106.699 558.685 106.521 558.951 106.344C559.394 106.078 559.837 105.812 560.103 105.635C560.192 105.546 560.192 105.546 560.192 105.458C560.192 105.369 560.103 105.369 560.103 105.369C558.242 104.749 557.356 103.508 557.356 101.558C557.356 100.318 557.887 99.1654 558.951 98.4564C559.66 97.9246 561.344 97.2156 562.496 97.2156H562.585C563.737 97.2156 564.357 97.4815 565.243 97.836C565.775 98.0132 566.218 98.1018 566.839 98.1018C567.813 98.1018 568.168 97.836 568.522 97.4815C568.522 97.5701 568.611 97.6587 568.611 98.0132C568.611 98.3677 568.522 98.8109 568.257 99.1654C568.079 99.4312 567.636 99.6085 567.193 99.6085H567.104C566.661 99.5199 566.484 99.5199 566.484 99.5199L566.395 99.6085C566.395 99.6971 566.395 99.6971 566.395 99.7858V99.8744C566.484 100.052 566.573 100.761 566.573 100.938C566.573 102.976 565.775 103.863 564.889 104.483C564.091 105.103 563.116 105.458 562.053 105.546C562.053 105.546 561.964 105.546 561.698 105.546C561.61 105.546 561.432 105.546 561.344 105.546C561.166 105.635 560.635 105.812 560.635 106.255C560.635 106.61 560.812 107.053 561.875 107.142C562.053 107.142 562.319 107.142 562.585 107.23C564.003 107.319 565.686 107.408 566.484 107.762C567.636 108.205 568.345 109.18 568.345 110.421C568.345 112.193 567.016 113.877 564.889 114.941C563.914 115.295 562.85 115.473 561.698 115.473ZM575.613 98.4564C575.081 98.4564 574.638 98.545 574.283 98.8109C573.308 99.4312 572.865 100.583 572.865 102.267C572.865 105.458 574.46 107.674 576.765 107.674C577.474 107.674 578.006 107.496 578.449 107.053C579.158 106.433 579.512 105.281 579.512 103.685C579.512 100.583 577.917 98.4564 575.613 98.4564ZM576.056 108.914C571.89 108.914 570.384 105.901 570.384 102.976C570.384 100.938 571.181 99.4312 572.777 98.3677C573.929 97.6587 575.258 97.3042 576.499 97.3042C579.689 97.3042 581.905 99.6085 581.905 102.888C581.905 105.103 581.019 106.876 579.335 107.939C578.626 108.383 577.208 108.914 576.056 108.914ZM532.54 98.4564C532.008 98.4564 531.565 98.545 531.211 98.8109C530.236 99.4312 529.793 100.583 529.793 102.267C529.793 105.458 531.388 107.674 533.692 107.674C534.401 107.674 534.933 107.496 535.376 107.053C536.085 106.433 536.44 105.281 536.44 103.685C536.44 100.583 534.844 98.4564 532.54 98.4564ZM532.983 108.914C528.818 108.914 527.311 105.901 527.311 102.976C527.311 100.938 528.109 99.4312 529.704 98.3677C530.856 97.6587 532.186 97.3042 533.426 97.3042C536.617 97.3042 538.833 99.6085 538.833 102.888C538.833 105.103 537.946 106.876 536.262 107.939C535.553 108.383 534.135 108.914 532.983 108.914ZM505.066 108.648C504.977 108.56 504.977 108.383 504.977 108.117C504.977 107.939 505.066 107.762 505.066 107.762C505.598 107.674 505.863 107.585 506.129 107.585C506.661 107.496 506.838 107.23 506.838 106.61C506.927 105.103 506.927 102.356 506.927 100.406V100.318C506.927 100.14 506.927 99.7858 506.661 99.6085C506.307 99.3426 505.775 99.1654 505.154 98.9881C504.977 98.8995 504.8 98.8109 504.8 98.6336C504.8 98.4564 504.977 98.2791 505.243 98.2791C506.041 98.1905 508.168 97.6587 508.965 97.3042C509.054 97.3928 509.054 97.4815 509.054 97.6587V97.9246C509.054 98.1905 508.965 98.545 508.965 98.8109C508.965 98.8995 509.054 98.9881 509.143 98.9881C509.231 98.9881 509.231 98.9881 509.32 98.8995C510.915 97.6587 512.333 97.2156 513.042 97.2156C514.283 97.2156 515.169 97.7473 515.878 98.9881C515.967 99.0767 515.967 99.0767 516.056 99.0767C516.144 99.0767 516.144 99.0767 516.233 98.9881C517.651 97.9246 519.157 97.2156 520.044 97.2156C522.348 97.2156 523.677 98.8995 523.677 101.736C523.677 102.533 523.677 103.597 523.677 104.572C523.677 105.458 523.677 106.167 523.677 106.787C523.677 106.876 523.855 107.319 524.121 107.408C524.475 107.585 524.918 107.674 525.539 107.762C525.627 107.939 525.45 108.56 525.361 108.648C525.184 108.648 525.007 108.648 524.741 108.648C524.121 108.648 523.5 108.56 522.88 108.56C521.373 108.56 520.575 108.56 519.866 108.648C519.778 108.471 519.778 107.851 519.866 107.762C520.31 107.674 520.487 107.585 520.753 107.585C521.284 107.408 521.373 107.23 521.373 106.61C521.373 106.167 521.462 102.179 521.284 101.204C521.107 100.229 520.398 99.0767 518.803 99.0767C518.183 99.0767 517.208 99.3426 516.321 100.052C516.233 100.14 516.233 100.229 516.233 100.318C516.321 100.849 516.321 101.381 516.321 102.356V103.951C516.321 105.015 516.321 106.078 516.321 106.876C516.321 107.408 516.676 107.496 516.942 107.674C517.119 107.674 517.208 107.762 517.296 107.762C517.474 107.851 517.739 107.851 518.094 107.939C518.183 108.028 518.183 108.383 518.094 108.648C518.094 108.826 518.005 108.826 518.005 108.914C517.208 108.914 516.321 108.826 515.081 108.826C514.726 108.826 514.106 108.826 513.574 108.826C513.131 108.826 512.688 108.826 512.51 108.826C512.51 108.737 512.422 108.648 512.422 108.294C512.422 108.117 512.51 107.939 512.51 107.851C512.599 107.851 512.688 107.762 512.865 107.762C513.131 107.674 513.397 107.674 513.663 107.585C514.106 107.496 514.194 107.23 514.283 106.699C514.372 105.458 514.46 102.001 514.283 101.115C513.84 99.7858 513.042 99.0767 511.801 99.0767C511.004 99.0767 510.118 99.4312 509.32 100.052C509.231 100.14 509.143 100.406 509.143 100.583V102.001C509.143 103.774 509.143 105.99 509.143 106.876C509.143 107.142 509.231 107.496 509.852 107.674C509.94 107.674 510.206 107.762 510.383 107.762L510.827 107.851C510.915 108.028 510.827 108.56 510.738 108.737C510.472 108.737 510.206 108.737 509.852 108.737C509.32 108.737 508.699 108.648 507.902 108.648C507.016 108.648 506.395 108.648 505.952 108.737C505.598 108.648 505.332 108.648 505.066 108.648Z" fill="#442D22"/>
<path d="M492.215 114.587L491.24 114.232C491.24 114.232 491.329 109.092 489.556 108.737C488.315 107.319 489.733 48.6485 494.165 108.56C494.165 108.56 492.658 109.358 492.392 110.599C492.038 111.839 492.215 114.587 492.215 114.587Z" fill="white"/>
<path d="M492.215 114.587L491.24 114.232C491.24 114.232 491.329 109.092 489.556 108.737C488.315 107.319 489.733 48.6485 494.165 108.56C494.165 108.56 492.658 109.358 492.392 110.599C492.038 111.839 492.215 114.587 492.215 114.587Z" fill="#A6A385"/>
<path d="M492.747 109.624C492.747 109.624 501.521 103.863 499.482 91.8986C497.444 83.1245 492.835 80.2885 492.304 79.1363C491.683 78.4273 491.151 77.0093 491.151 77.0093L491.506 101.293C491.595 101.293 490.797 108.738 492.747 109.624Z" fill="white"/>
<path d="M492.747 109.624C492.747 109.624 501.521 103.863 499.482 91.8986C497.444 83.1245 492.835 80.2885 492.304 79.1363C491.683 78.4273 491.151 77.0093 491.151 77.0093L491.506 101.293C491.595 101.293 490.797 108.738 492.747 109.624Z" fill="#499D4A"/>
<path d="M490.708 109.89C490.708 109.89 482.466 104.306 482.998 94.3799C483.352 84.5423 489.202 79.6678 490.354 78.7816C491.063 77.9839 491.063 77.718 491.151 76.9204C491.683 77.9839 491.595 93.405 491.683 95.1775C491.86 102.179 491.24 108.649 490.708 109.89Z" fill="white"/>
<path d="M490.708 109.89C490.708 109.89 482.466 104.306 482.998 94.3799C483.352 84.5423 489.202 79.6678 490.354 78.7816C491.063 77.9839 491.063 77.718 491.151 76.9204C491.683 77.9839 491.595 93.405 491.683 95.1775C491.86 102.179 491.24 108.649 490.708 109.89Z" fill="#58AA50"/>
<path d="M384.173 98.9C384.173 101.47 383.198 103.597 381.337 105.015C379.476 106.433 376.906 107.142 373.361 107.142C370.525 107.142 368.221 106.699 366.359 105.547V99.4317C368.486 101.293 371.057 102.268 373.627 102.268C374.779 102.268 375.931 102.002 376.64 101.559C377.349 101.116 377.615 100.407 377.615 99.4317C377.615 98.4569 377.349 97.8365 376.64 97.3047C375.931 96.5957 374.513 95.8867 372.386 95.0004C368.309 93.0506 366.182 90.2146 366.182 86.9354C366.182 84.3652 367.157 82.5041 369.018 81.086C370.879 79.7566 373.184 78.7817 376.286 78.7817C378.856 78.7817 381.16 79.2249 383.11 79.9339V85.7832C381.249 84.6311 379.122 83.9221 376.817 83.9221C375.665 83.9221 374.69 84.188 373.981 84.6311C373.184 85.0742 373.006 85.7832 373.006 86.7581C373.006 87.733 373.272 88.3534 373.981 88.8852C374.424 89.3283 375.577 90.0373 377.526 91.0122C380.097 92.1644 381.958 93.3165 383.11 94.7345C383.73 95.6208 384.173 97.0388 384.173 98.9Z" fill="#0072C5"/>
<path d="M407.394 93.0509C407.394 90.2148 406.685 88.1764 405.532 86.4925C404.38 84.8972 402.696 84.1882 400.658 84.1882C398.531 84.1882 396.67 84.8972 395.518 86.4925C394.1 88.0878 393.656 90.2148 393.656 93.0509C393.656 95.621 394.365 97.9253 395.518 99.6092C396.67 101.205 398.531 101.914 400.658 101.914C402.785 101.914 404.38 101.205 405.798 99.6092C406.685 98.014 407.394 95.8869 407.394 93.0509ZM413.952 92.785C413.952 96.0642 413.243 98.9002 411.825 101.205C410.407 103.509 408.28 105.193 405.532 106.079L413.509 113.612H405.532L399.86 107.32C397.556 107.32 395.163 106.611 393.302 105.459C391.441 104.306 389.757 102.623 388.871 100.584C387.718 98.4571 387.275 96.1528 387.275 93.5826C387.275 90.7466 387.718 88.1764 388.871 85.8721C390.023 83.5678 391.707 81.8839 393.745 80.7318C395.872 79.5796 398.176 78.8706 401.012 78.8706C403.583 78.8706 405.887 79.3137 407.837 80.4659C409.964 81.618 411.382 83.3019 412.534 85.3404C413.42 87.6446 413.952 90.0376 413.952 92.785Z" fill="#0072C5"/>
<path d="M434.956 106.61H418.383V79.2246H424.676V101.736H434.956V106.61Z" fill="#0072C5"/>
<path d="M241.06 115.606C241.769 115.606 242.478 115.783 242.832 116.138C242.921 116.669 242.389 117.556 242.123 117.556C241.769 117.378 241.414 117.378 240.971 117.378C239.199 117.378 238.401 119.151 238.401 121.012C238.401 122.164 238.756 122.785 239.642 122.785C240.617 122.785 241.503 122.164 242.123 121.633C242.301 121.721 242.389 122.076 242.389 122.342C242.389 122.696 242.301 123.051 241.946 123.405C241.326 124.025 240.262 124.557 238.756 124.557C236.983 124.557 235.831 123.582 235.831 121.278C235.831 118.265 237.869 115.606 241.06 115.606Z" fill="#373535"/>
<path d="M246.732 122.607C247.707 122.607 249.391 120.924 249.834 117.822C249.834 117.644 249.834 117.556 249.922 117.378C249.745 117.29 249.391 117.201 249.125 117.201C248.416 117.201 247.707 117.378 246.998 118.265C246.289 119.24 246.023 120.392 246.023 121.278C246.112 122.164 246.377 122.607 246.732 122.607ZM243.63 121.721C243.63 120.569 243.985 118.619 245.491 117.201C246.732 115.96 248.239 115.606 249.568 115.606C250.454 115.606 251.695 115.872 252.493 116.049C252.315 116.935 251.872 120.037 251.606 121.898C251.518 122.696 251.429 123.76 251.518 124.203C250.897 124.469 249.657 124.557 249.391 124.557C249.213 124.557 249.213 123.76 249.213 123.051C249.213 122.785 249.302 122.43 249.302 122.253C248.593 123.494 247.086 124.557 245.491 124.557C244.339 124.557 243.63 123.582 243.63 121.721Z" fill="#373535"/>
<path d="M257.279 115.606C258.076 115.606 258.785 115.872 259.14 116.226C259.14 116.758 258.697 117.644 257.988 117.378C257.722 117.29 257.367 117.201 257.013 117.201C256.481 117.201 256.038 117.467 256.038 117.91C256.038 118.265 256.304 118.531 257.633 119.417C258.519 120.126 258.963 120.658 258.963 121.544C258.963 122.962 257.633 124.469 255.329 124.469C254.354 124.469 253.556 124.114 253.29 123.76C252.936 123.139 253.202 122.076 253.556 122.253C254.088 122.519 254.886 122.785 255.595 122.785C256.215 122.785 256.658 122.519 256.658 122.076C256.658 121.721 256.392 121.455 255.24 120.658C254.265 119.949 253.911 119.24 253.911 118.531C253.911 116.935 255.24 115.606 257.279 115.606Z" fill="#373535"/>
<path d="M263.837 115.606C264.635 115.606 265.344 115.872 265.698 116.226C265.698 116.758 265.255 117.644 264.546 117.378C264.28 117.29 263.926 117.201 263.571 117.201C263.039 117.201 262.596 117.467 262.596 117.91C262.596 118.265 262.862 118.531 264.191 119.417C265.078 120.126 265.521 120.658 265.521 121.544C265.521 122.962 264.191 124.469 261.887 124.469C260.912 124.469 260.115 124.114 259.849 123.76C259.494 123.139 259.76 122.076 260.115 122.253C260.646 122.519 261.444 122.785 262.153 122.785C262.773 122.785 263.216 122.519 263.216 122.076C263.216 121.721 262.951 121.455 261.798 120.658C260.824 119.949 260.469 119.24 260.469 118.531C260.469 116.935 261.887 115.606 263.837 115.606Z" fill="#373535"/>
<path d="M269.952 122.607C270.927 122.607 272.611 120.924 273.054 117.822C273.054 117.644 273.054 117.556 273.143 117.378C272.966 117.29 272.611 117.201 272.345 117.201C271.636 117.201 270.927 117.378 270.218 118.265C269.509 119.24 269.243 120.392 269.243 121.278C269.332 122.164 269.509 122.607 269.952 122.607ZM266.85 121.721C266.85 120.569 267.205 118.619 268.712 117.201C269.952 115.96 271.459 115.606 272.788 115.606C273.675 115.606 274.915 115.872 275.713 116.049C275.536 116.935 275.093 120.037 274.827 121.898C274.738 122.696 274.649 123.76 274.738 124.203C274.118 124.469 272.877 124.557 272.611 124.557C272.434 124.557 272.434 123.76 272.434 123.051C272.434 122.785 272.522 122.43 272.522 122.253C271.813 123.494 270.307 124.557 268.712 124.557C267.559 124.557 266.85 123.582 266.85 121.721Z" fill="#373535"/>
<path d="M279.967 118.088C280.853 116.669 282.005 115.606 283.601 115.606C284.93 115.606 285.373 116.847 285.196 118.708C285.019 119.594 284.841 120.746 284.664 121.898C284.487 122.873 284.398 123.671 284.487 124.291C283.955 124.557 282.537 124.646 282.183 124.646C282.005 124.646 282.005 123.582 282.183 122.519C282.36 121.633 282.626 119.949 282.803 118.974C282.892 118.442 282.892 117.733 282.36 117.733C281.651 117.733 279.967 118.885 279.081 123.494C278.992 123.848 278.903 124.114 278.638 124.203C278.372 124.38 277.751 124.557 276.51 124.557C276.776 123.405 277.131 121.012 277.397 119.24C277.663 117.644 277.751 116.581 277.663 116.226C278.017 116.138 279.701 115.783 279.878 115.783C280.056 115.783 280.144 116.404 279.967 117.822C279.967 117.733 279.967 117.999 279.967 118.088Z" fill="#373535"/>
<path d="M289.805 122.607C290.691 122.607 292.375 121.012 292.818 118.265C292.818 118.087 292.907 117.822 292.907 117.644C292.641 117.378 292.286 117.29 291.843 117.29C289.893 117.29 289.007 119.594 289.007 121.278C289.007 122.076 289.361 122.607 289.805 122.607ZM288.475 124.557C287.234 124.557 286.437 123.494 286.437 121.544C286.437 118.442 288.387 115.606 291.666 115.606C292.286 115.606 292.729 115.783 293.084 115.96C293.261 115.074 293.704 112.327 293.704 111.529C294.236 111.44 295.388 111.263 295.92 111.263C296.097 111.263 296.186 111.44 296.097 111.972C295.654 114.808 294.768 120.392 294.679 121.633C294.59 122.696 294.502 123.671 294.59 124.291C293.97 124.557 292.729 124.646 292.375 124.646C292.197 124.646 292.198 123.76 292.198 122.962C292.198 122.696 292.286 122.342 292.286 122.253C291.311 123.76 289.982 124.557 288.475 124.557Z" fill="#373535"/>
<path d="M299.731 118.353C300.706 116.049 301.946 115.606 302.744 115.606C303.01 115.606 303.364 115.783 303.542 115.96C303.63 116.581 303.099 117.822 302.655 118.353C302.39 118.265 302.124 118.088 301.769 118.088C301.149 118.088 299.819 119.062 299.022 123.494C298.933 123.848 298.844 124.025 298.667 124.114C298.313 124.291 297.072 124.469 296.452 124.469C296.717 122.873 297.249 119.683 297.426 117.822C297.515 117.378 297.515 116.492 297.426 116.138C297.781 115.96 299.199 115.606 299.553 115.606C299.819 115.606 299.997 116.669 299.731 118.353Z" fill="#373535"/>
<path d="M306.555 122.607C307.53 122.607 309.214 120.924 309.657 117.822C309.657 117.644 309.657 117.556 309.745 117.378C309.568 117.29 309.214 117.201 308.948 117.201C308.239 117.201 307.53 117.378 306.821 118.265C306.112 119.24 305.846 120.392 305.846 121.278C305.935 122.164 306.112 122.607 306.555 122.607ZM303.453 121.721C303.453 120.569 303.808 118.619 305.314 117.201C306.555 115.96 308.062 115.606 309.391 115.606C310.277 115.606 311.518 115.872 312.316 116.049C312.138 116.935 311.695 120.037 311.429 121.898C311.341 122.696 311.252 123.76 311.341 124.203C310.72 124.469 309.48 124.557 309.214 124.557C309.036 124.557 309.036 123.76 309.036 123.051C309.036 122.785 309.125 122.43 309.125 122.253C308.416 123.494 306.909 124.557 305.314 124.557C304.162 124.557 303.453 123.582 303.453 121.721Z" fill="#373535"/>
<path d="M300.883 83.0801C301.503 90.4361 289.893 97.5262 274.915 98.767C259.937 100.008 247.264 95.1333 246.643 87.6887C246.023 80.3327 257.633 73.3312 272.611 72.0018C287.589 70.761 300.262 75.6355 300.883 83.0801Z" fill="#BBE6FB"/>
<path opacity="0.35" d="M273.054 72.8882C267.382 72.7996 260.646 75.1039 255.683 77.1423C255.152 78.649 254.886 80.2442 254.886 81.8395C254.886 90.6135 262.774 97.7037 272.522 97.7037C282.271 97.7037 290.159 90.6135 290.159 81.8395C290.159 79.0921 289.362 76.4333 287.943 74.2176C284.133 73.5972 278.638 72.9768 273.054 72.8882Z" fill="white"/>
<path d="M272.611 72.888C269.42 72.7108 263.926 74.3061 259.406 75.99C258.697 77.5852 258.342 79.3578 258.342 81.3076C258.342 89.0181 265.344 95.2219 272.7 95.2219C280.056 95.2219 286.525 89.0181 287.057 81.3076C287.234 78.826 286.348 76.4331 285.196 74.3947C280.41 73.597 275.447 73.0653 272.611 72.888Z" fill="white"/>
<path d="M264.457 80.2441C264.812 79.3579 265.432 79.0034 265.964 78.2057C265.875 78.0285 265.787 77.4967 265.787 77.3195C265.787 76.4332 266.496 75.7242 267.382 75.7242C267.559 75.7242 267.737 75.7242 268.002 75.8128C270.573 73.9516 273.94 73.0654 277.397 73.7744C277.751 73.863 278.017 73.9516 278.283 74.0403C274.915 73.5971 271.104 74.7493 268.446 76.8763C268.534 77.0536 268.711 77.5853 268.711 77.8512C268.711 78.7375 268.18 78.9147 267.293 78.9147C267.116 78.9147 266.939 78.9147 266.762 78.8261C266.141 79.6237 265.432 81.1304 265.078 82.0167C266.496 83.2574 267.825 83.7892 269.509 84.4096C269.509 84.321 269.598 84.2323 269.598 84.1437C269.598 81.5735 271.902 79.4465 274.472 79.4465C276.776 79.4465 278.726 81.1304 279.081 83.3461C280.233 82.6371 281.385 82.0167 282.271 80.9531C282.094 80.6873 281.828 79.9783 281.828 79.7124C281.828 78.9147 282.449 78.2943 283.246 78.2943C283.335 78.2943 283.423 78.2943 283.601 78.2943C284.044 77.4081 284.398 76.4332 284.576 75.4583C280.499 72.445 272.611 72.8881 272.611 72.8881C272.611 72.8881 266.319 72.5336 262.064 74.6607C262.419 76.6991 263.305 78.6489 264.457 80.2441Z" fill="#373535"/>
<path d="M283.955 79.0917C284.221 79.3576 284.398 79.5348 284.487 79.8007C284.842 80.5097 284.133 81.1301 283.335 81.1301C283.246 81.1301 283.158 81.1301 283.069 81.1301C282.183 82.5481 280.676 84.232 279.258 85.2069C281.385 85.5614 283.335 86.3591 284.93 87.6885C286.082 85.6501 286.969 82.6368 286.969 80.1552C286.969 78.2054 286.082 76.7874 284.842 75.8125C284.842 76.6988 284.221 78.1168 283.955 79.0917Z" fill="#373535"/>
<path d="M266.85 92.12C267.559 90.1702 269.243 88.6636 270.927 87.3342C270.661 86.9797 270.307 86.182 270.218 85.8275C268.268 85.2071 266.496 84.055 265.078 82.5483V82.637C264.812 83.7891 264.812 84.9413 264.9 86.0934C265.875 86.2707 266.584 87.0683 266.584 88.1318C266.584 88.7522 266.053 89.5498 265.698 89.993C265.964 90.9679 266.318 91.411 266.85 92.12Z" fill="#373535"/>
<path d="M266.673 93.7151C265.875 92.9175 265.255 91.2336 264.723 90.1701C264.635 90.1701 264.546 90.1701 264.369 90.1701C263.217 90.1701 262.064 89.1952 262.33 88.1317C262.507 87.5113 262.862 87.1568 263.571 86.8023C263.394 85.5615 263.394 83.7003 263.66 82.3709C263.748 82.0164 263.926 81.8392 264.014 81.4847C262.773 79.6235 261.976 77.2306 261.976 74.8377C261.976 74.749 261.976 74.6604 261.976 74.5718C259.849 75.6353 258.253 77.3192 258.253 79.978C258.342 85.8274 261.71 91.5881 266.673 93.7151C266.673 93.8038 266.673 93.8038 266.673 93.7151Z" fill="#373535"/>
<path d="M278.992 85.7388C278.372 87.5999 276.599 88.9293 274.561 88.9293C273.497 88.9293 272.434 88.5748 271.636 87.9544C269.952 89.2838 268.446 91.4995 267.737 93.4493C268.091 93.8038 268.357 94.1583 268.711 94.4242C269.864 94.6901 271.459 94.4242 272.7 94.4242C277.751 94.4242 282.183 92.2085 284.753 88.2203C282.98 86.9795 281.031 85.916 278.992 85.7388Z" fill="#373535"/>
<path d="M264.369 80.9531C264.723 80.0669 265.255 79.2692 265.787 78.5602C265.698 78.3829 265.698 78.2057 265.698 78.0284C265.698 77.1422 266.407 76.4332 267.293 76.4332C267.471 76.4332 267.648 76.4332 267.914 76.5218C270.484 74.572 273.94 73.6857 277.308 74.4834C277.663 74.572 277.929 74.6606 278.194 74.7493C274.827 74.3061 271.282 75.281 268.711 77.4081C268.8 77.5853 268.8 77.7626 268.8 78.0284C268.8 78.9147 268.091 79.6237 267.205 79.6237C267.027 79.6237 266.85 79.6237 266.673 79.5351C266.053 80.3327 265.609 81.219 265.255 82.1053C266.496 83.4347 268.002 84.4982 269.686 85.1186C269.686 85.0299 269.686 84.9413 269.686 84.8527C269.686 82.2825 271.813 80.1555 274.383 80.1555C276.688 80.1555 278.638 81.8394 278.992 84.0551C280.144 83.346 281.208 82.3711 282.005 81.3076C281.828 81.0417 281.651 80.7759 281.651 80.4214C281.651 79.6237 282.271 79.0033 283.069 79.0033C283.157 79.0033 283.246 79.0033 283.423 79.0033C283.866 78.1171 284.221 77.1422 284.398 76.1673C280.321 73.154 272.434 73.5971 272.434 73.5971C272.434 73.5971 266.141 73.2426 261.887 75.3696C262.33 77.3194 263.128 79.2692 264.369 80.9531Z" fill="#1287B1"/>
<path d="M284.132 79.2694C284.398 79.5353 284.576 79.8898 284.576 80.3329C284.576 81.1306 283.955 81.751 283.158 81.751C283.069 81.751 282.98 81.751 282.892 81.751C282.005 83.169 280.853 84.3211 279.435 85.2074C281.474 85.5619 283.335 86.3595 284.93 87.6889C286.082 85.6505 286.703 83.2576 286.703 80.6874C286.703 78.7376 285.816 77.3196 284.576 76.3447C284.664 77.4082 284.487 78.3831 284.132 79.2694Z" fill="#1287B1"/>
<path d="M267.028 92.5631C267.737 90.6133 268.977 88.9294 270.573 87.6C270.307 87.2455 270.13 86.891 269.952 86.5365C268.002 85.9161 266.23 84.764 264.812 83.2573V83.346C264.546 84.4981 264.546 85.6502 264.635 86.8024C265.61 86.9796 266.319 87.7773 266.319 88.8408C266.319 89.4612 266.053 89.9929 265.698 90.3475C266.053 91.1451 266.496 91.9427 267.028 92.5631Z" fill="#1287B1"/>
<path d="M266.673 93.7151C265.875 92.9175 265.166 91.9426 264.635 90.8791C264.546 90.8791 264.457 90.8791 264.28 90.8791C263.128 90.8791 262.242 89.9928 262.242 88.8406C262.242 88.043 262.685 87.334 263.394 86.9795C263.217 85.7387 263.305 84.4093 263.571 83.0799C263.66 82.7254 263.748 82.3709 263.837 82.0164C262.596 80.1552 261.887 77.9396 261.887 75.5466C261.887 75.458 261.887 75.3694 261.887 75.2808C259.76 76.3443 258.165 78.0282 258.165 80.687C258.253 86.5363 261.71 91.4994 266.673 93.7151C266.673 93.7151 266.673 93.8037 266.673 93.7151Z" fill="#1287B1"/>
<path d="M278.815 86.3589C278.195 88.22 276.422 89.5494 274.384 89.5494C273.32 89.5494 272.257 89.1949 271.459 88.5746C269.775 89.904 268.534 91.5879 267.825 93.5376C268.18 93.8922 268.534 94.2467 268.889 94.6012C270.041 94.867 271.282 95.0443 272.522 95.0443C277.574 95.0443 282.005 92.4741 284.576 88.4859C282.892 87.3338 280.853 86.5361 278.815 86.3589Z" fill="#1287B1"/>
<path d="M278.992 85.2069L283.335 84.1434L278.992 83.8775L282.537 81.1301L278.46 82.5481L281.208 78.7372L277.397 81.2187L278.726 76.7874L276.156 80.4211L276.067 75.8125L274.383 79.978L272.965 75.8125L273.054 80.687L270.572 76.2556L271.902 80.9528L267.914 78.0282L271.016 81.9277L266.053 80.0666L269.952 82.9913L264.9 83.1685L270.041 84.4979L264.9 85.6501L269.952 86.0046L265.698 88.752L270.129 87.1567L267.027 91.0563L270.927 87.9543L269.509 93.1833L272.522 88.9292L272.079 93.8923L273.763 89.3724L275.181 94.1582L275.536 89.3724L277.663 93.4492L276.422 88.752L280.321 91.7653L277.751 87.8657L282.094 89.5496L278.992 86.5363L283.423 86.8908L278.992 85.2069Z" fill="white"/>
<path opacity="0.35" d="M232.64 93.5379C246.112 79.978 256.924 75.8125 266.762 73.9514C268.091 73.6855 268.268 70.8494 268.268 70.8494C268.268 70.8494 268.445 72.9765 269.332 73.2424C270.218 73.5082 271.459 69.9632 271.459 69.9632C271.459 69.9632 270.395 73.1537 271.459 73.331C272.522 73.5082 274.561 70.2291 274.561 70.2291C274.561 70.2291 273.674 73.0651 274.295 73.2424C274.827 73.4196 277.574 69.1655 277.574 69.1655C277.574 69.1655 275.89 71.913 277.397 72.1788C278.903 72.4447 281.208 70.2291 281.208 70.2291C281.208 70.2291 279.435 72.2675 280.233 72.5334C283.601 73.6855 286.259 69.3428 286.259 69.3428C286.259 69.3428 285.639 71.2926 284.044 73.4196C287.589 74.3059 290.248 68.9883 290.248 68.9883L287.589 74.3059C288.918 75.0149 294.413 68.811 294.413 68.811C294.413 68.811 291.577 73.6855 289.982 74.6604C290.868 75.3694 294.147 72.4447 294.147 72.4447C294.147 72.4447 291.488 75.7239 292.552 75.9012C293.97 77.0533 299.376 69.8746 299.376 69.8746C299.376 69.8746 297.249 74.1286 294.236 77.4964C296.806 78.8258 303.187 70.4949 303.187 70.4949C303.187 70.4949 303.01 73.1537 298.401 77.3192C301.858 76.8761 306.289 70.3177 306.289 70.3177C306.289 70.3177 304.694 75.1922 300.794 78.6486C304.162 78.2941 309.568 69.9632 309.568 69.9632C309.568 69.9632 307.353 75.7239 303.098 79.0917C307.796 80.1552 314.62 73.1537 314.62 73.1537C314.62 73.1537 311.961 78.1168 308.416 80.1552C312.316 81.6619 317.633 75.458 317.633 75.458C317.633 75.458 312.316 83.7003 303.719 83.3458C301.06 83.2572 292.552 74.8376 274.472 75.5467C250.543 76.4329 245.402 86.625 232.64 93.5379Z" fill="#373535"/>
<path d="M233.172 92.4744C246.732 79.0031 257.456 74.8377 267.293 72.8879C268.623 72.622 268.8 69.786 268.8 69.786C268.8 69.786 268.977 71.913 269.864 72.1789C270.75 72.4448 271.991 68.8997 271.991 68.8997C271.991 68.8997 270.927 72.0903 271.991 72.2675C273.054 72.4448 275.093 69.1656 275.093 69.1656C275.093 69.1656 274.295 72.0016 274.827 72.1789C275.358 72.3561 278.106 68.1021 278.106 68.1021C278.106 68.1021 276.511 70.9381 278.017 71.204C279.524 71.4699 281.828 69.2542 281.828 69.2542C281.828 69.2542 279.967 71.2926 280.765 71.5585C284.132 72.7107 286.791 68.3679 286.791 68.3679C286.791 68.3679 286.171 70.3177 284.487 72.3561C288.032 73.2424 290.691 67.9248 290.691 67.9248L288.032 73.2424C289.539 74.0401 294.945 67.7476 294.945 67.7476C294.945 67.7476 292.109 72.622 290.514 73.5969C291.4 74.3059 294.679 71.3813 294.679 71.3813C294.679 71.3813 292.02 74.6604 293.084 74.8377C294.502 75.9898 299.908 68.8111 299.908 68.8111C299.908 68.8111 297.781 73.0652 294.679 76.433C297.249 77.7624 303.63 69.4315 303.63 69.4315C303.63 69.4315 303.453 72.0903 298.844 76.2557C302.301 75.8126 306.732 69.2542 306.732 69.2542C306.732 69.2542 305.137 74.1287 301.237 77.5851C304.605 77.2306 310.011 68.8997 310.011 68.8997C310.011 68.8997 307.884 74.6604 303.63 78.0283C308.328 79.0918 315.152 72.0903 315.152 72.0903C315.152 72.0903 312.493 77.0534 308.948 79.0918C312.847 80.5984 318.165 74.3946 318.165 74.3946C318.165 74.3946 312.847 82.6368 304.251 82.2823C301.415 82.1937 292.995 73.7742 274.915 74.4832C251.075 75.4581 246.023 85.5615 233.172 92.4744Z" fill="#373535"/>
<path opacity="0.35" d="M232.286 94.9558C239.465 98.5009 245.934 94.424 254.177 96.7283C260.469 98.5009 268.091 100.628 278.372 99.2099C288.741 97.7032 297.604 93.1833 301.769 85.2069C303.099 81.6618 308.416 86.0045 308.416 86.0045C308.416 86.0045 304.517 84.4092 304.605 85.1182C304.694 85.9159 310.455 88.5747 310.455 88.5747C310.455 88.5747 305.226 86.9794 305.58 88.1315C305.935 89.3723 312.138 94.2468 312.138 94.2468C312.138 94.2468 305.137 88.9292 304.517 89.6382C303.896 90.3472 307.53 93.2719 307.53 93.2719C307.53 93.2719 301.592 89.6382 299.465 90.7017C297.958 91.4994 305.669 96.4624 305.669 96.4624C305.669 96.4624 300.706 92.6515 299.465 93.6264C298.313 94.6013 305.048 102.755 305.048 102.755C305.048 102.755 297.338 94.424 296.54 94.8672C295.743 95.3103 298.667 99.2985 298.667 99.2985C298.667 99.2985 294.945 95.2217 293.881 95.9307C292.818 96.6397 299.288 107.452 299.288 107.452C299.288 107.452 292.286 96.3738 289.45 98.235C293.97 108.25 292.286 109.668 292.286 109.668C292.286 109.668 291.666 99.4758 285.994 99.7416C283.158 99.9189 287.323 107.364 287.323 107.364C287.323 107.364 283.423 100.539 280.853 100.717C285.639 109.756 283.955 113.39 283.955 113.39C283.955 113.39 284.753 105.68 278.283 101.426C280.765 103.641 276.776 113.39 276.776 113.39C276.776 113.39 280.322 98.944 274.206 101.691C273.231 102.135 274.118 108.87 274.118 108.87C274.118 108.87 272.877 101.16 271.016 101.514C269.952 101.78 264.191 112.238 264.191 112.238C264.191 112.238 268.889 100.894 267.471 101.337C266.407 101.691 264.457 106.389 264.457 106.389C264.457 106.389 265.432 101.78 264.457 101.514C263.482 101.248 258.165 106.389 258.165 106.389C258.165 106.389 262.153 101.78 261.444 100.805C260.381 99.3871 259.228 99.2985 257.81 99.8303C255.683 100.628 252.936 104.439 252.936 104.439C252.936 104.439 255.772 100.628 255.24 99.1212C254.443 96.817 246.378 103.641 246.378 103.641C246.378 103.641 251.163 99.1212 250.011 98.235C248.948 97.2601 243.01 97.6146 241.149 97.6146C235.831 97.526 233.97 96.2852 232.286 94.9558Z" fill="#373535"/>
<path d="M232.02 94.1584C239.199 97.7035 245.669 93.6267 253.911 95.931C260.203 97.7035 267.825 99.8305 278.106 98.4125C288.475 96.9059 297.249 92.4745 301.503 84.4095C302.833 80.8644 308.15 85.2071 308.15 85.2071C308.15 85.2071 304.251 83.6119 304.339 84.3209C304.428 85.1185 310.189 87.7773 310.189 87.7773C310.189 87.7773 304.96 86.182 305.314 87.3342C305.669 88.575 311.873 93.4494 311.873 93.4494C311.873 93.4494 304.871 88.1318 304.251 88.8408C303.63 89.5498 307.264 92.4745 307.264 92.4745C307.264 92.4745 301.326 88.8408 299.199 89.9044C297.692 90.702 305.403 95.6651 305.403 95.6651C305.403 95.6651 300.44 91.8541 299.199 92.829C298.047 93.8039 304.782 101.958 304.782 101.958C304.782 101.958 297.072 93.6267 296.274 94.0698C295.477 94.5129 298.401 98.5011 298.401 98.5011C298.401 98.5011 294.59 94.3357 293.527 95.0447C292.463 95.7537 298.933 106.566 298.933 106.566C298.933 106.566 291.932 95.4878 289.007 97.349C293.527 107.364 291.843 108.782 291.843 108.782C291.843 108.782 291.4 98.6784 285.728 98.9443C282.892 99.1215 287.057 106.566 287.057 106.566C287.057 106.566 283.158 99.7419 280.587 99.9192C285.373 108.959 283.689 112.593 283.689 112.593C283.689 112.593 284.487 104.882 278.017 100.628C280.499 102.844 276.511 112.593 276.511 112.593C276.511 112.593 280.056 98.1466 273.94 100.894C272.966 101.337 273.852 108.073 273.852 108.073C273.852 108.073 272.611 100.362 270.75 100.717C269.686 100.983 263.926 111.441 263.926 111.441C263.926 111.441 268.623 100.096 267.205 100.54C266.141 100.894 264.191 105.591 264.191 105.591C264.191 105.591 265.166 100.983 264.191 100.717C263.217 100.451 257.899 105.591 257.899 105.591C257.899 105.591 261.799 100.983 261.178 100.008C260.115 98.5898 258.963 98.5011 257.544 99.0329C255.417 99.8305 252.67 103.641 252.67 103.641C252.67 103.641 255.506 99.7419 254.974 98.3239C254.177 96.0196 246.112 102.844 246.112 102.844C246.112 102.844 250.897 98.3239 249.745 97.4376C248.682 96.4627 242.744 96.8172 240.883 96.8172C235.565 96.7286 233.704 95.4878 232.02 94.1584Z" fill="#373535"/>
<path d="M104.682 73.0649H77.917L64.5344 96.1965L77.917 119.328H104.682L118.065 96.1965L104.682 73.0649Z" fill="#50E6FF"/>
<path d="M88.1092 85.207H81.6394V91.6768H88.1092V85.207Z" fill="#0078D4"/>
<path d="M95.997 85.207H89.5272V91.6768H95.997V85.207Z" fill="#0078D4"/>
<path d="M103.796 85.207H97.3263V91.6768H103.796V85.207Z" fill="#0078D4"/>
<path d="M88.1092 93.0063H81.6394V99.4761H88.1092V93.0063Z" fill="#0078D4"/>
<path d="M95.997 93.0063H89.5272V99.4761H95.997V93.0063Z" fill="#0078D4"/>
<path d="M103.796 93.0063H97.3263V99.4761H103.796V93.0063Z" fill="#0078D4"/>
<path d="M88.1092 100.805H81.6394V107.275H88.1092V100.805Z" fill="#0078D4"/>
<path d="M95.997 100.805H89.5272V107.275H95.997V100.805Z" fill="#0078D4"/>
<path d="M103.796 100.805H97.3263V107.275H103.796V100.805Z" fill="#0078D4"/>
<path d="M80.0441 108.87L80.1327 85.207H78.8033L78.7147 110.2H103.707V108.87H80.0441Z" fill="#0078D4"/>
<path d="M131.004 90.0814H127.991V99.0327H126.307V90.0814H123.294V88.5747H131.004V90.0814Z" fill="black"/>
<path d="M136.588 99.0325H134.993V97.8804C134.461 98.7667 133.752 99.2098 132.777 99.2098C132.068 99.2098 131.448 99.0325 131.093 98.5894C130.65 98.2349 130.473 97.7031 130.473 96.9941C130.473 95.5761 131.27 94.7785 132.866 94.5126L135.081 94.1581C135.081 93.0946 134.549 92.5628 133.575 92.5628C132.688 92.5628 131.891 92.8287 131.182 93.4491V91.9424C131.979 91.4993 132.866 91.2334 133.929 91.2334C135.79 91.2334 136.765 92.1197 136.765 93.9808V99.0325H136.588ZM134.993 95.3989L133.397 95.5761C132.954 95.6647 132.511 95.7534 132.334 95.9306C132.068 96.1079 131.979 96.3737 131.979 96.8169C131.979 97.1714 132.068 97.3486 132.334 97.6145C132.6 97.7918 132.866 97.8804 133.22 97.8804C133.752 97.8804 134.195 97.7031 134.461 97.3486C134.727 96.9941 134.993 96.551 134.993 96.0192V95.3989Z" fill="black"/>
<path d="M140.31 97.9692V99.0327H138.626V88.043H140.31V92.9174C140.842 91.9425 141.728 91.4108 142.792 91.4108C143.767 91.4108 144.476 91.7653 145.008 92.3857C145.539 93.0061 145.805 93.981 145.805 95.0445C145.805 96.2852 145.539 97.2601 144.919 98.0578C144.299 98.7668 143.501 99.2099 142.526 99.2099C141.551 99.2099 140.842 98.7668 140.31 97.9692ZM140.31 95.0445V95.9307C140.31 96.4625 140.488 96.9056 140.842 97.3488C141.197 97.7033 141.64 97.8805 142.172 97.8805C142.792 97.8805 143.324 97.6146 143.678 97.1715C144.033 96.7284 144.21 96.0194 144.21 95.1331C144.21 94.4241 144.033 93.8037 143.678 93.4492C143.324 93.0947 142.881 92.8288 142.349 92.8288C141.728 92.8288 141.285 93.0061 140.931 93.4492C140.488 93.8037 140.31 94.3355 140.31 95.0445Z" fill="black"/>
<path d="M149.262 99.0327H147.578V88.043H149.262V99.0327Z" fill="black"/>
<path d="M157.77 95.7533H152.718C152.718 96.4624 152.984 96.9941 153.338 97.3486C153.782 97.7031 154.313 97.8804 155.022 97.8804C155.82 97.8804 156.529 97.6145 157.238 97.1714V98.5008C156.529 98.9439 155.643 99.1212 154.579 99.1212C153.516 99.1212 152.629 98.7667 152.009 98.1463C151.389 97.4373 151.034 96.551 151.034 95.3102C151.034 94.1581 151.389 93.1832 152.098 92.4742C152.807 91.7652 153.604 91.4106 154.668 91.4106C155.643 91.4106 156.44 91.7651 157.061 92.3855C157.681 93.0059 157.858 93.9808 157.858 95.133V95.7533H157.77ZM156.086 94.6012C156.086 93.9808 155.909 93.5377 155.643 93.1832C155.377 92.8287 154.934 92.6514 154.491 92.6514C154.047 92.6514 153.604 92.8287 153.25 93.1832C152.895 93.5377 152.718 93.9808 152.629 94.6012H156.086Z" fill="black"/>
<path d="M172.127 99.0329H170.266L169.291 96.3741H165.214L164.328 99.0329H162.467L166.366 88.6636H168.316L172.127 99.0329ZM168.848 94.9561L167.43 90.7906C167.43 90.6134 167.341 90.4361 167.253 90.1702C167.253 90.4361 167.164 90.702 167.076 90.7906L165.657 94.9561H168.848Z" fill="black"/>
<path d="M175.318 95.2219V99.0329H173.545V88.6636H176.736C177.888 88.6636 178.863 88.9295 179.483 89.4612C180.104 89.993 180.458 90.7906 180.458 91.7655C180.458 92.7404 180.104 93.6267 179.395 94.2471C178.686 94.8674 177.799 95.2219 176.647 95.2219H175.318V95.2219ZM175.318 90.0816V93.8925H176.47C177.179 93.8925 177.799 93.7153 178.154 93.3608C178.508 93.0063 178.774 92.5631 178.774 91.9428C178.774 90.702 178.065 90.0816 176.647 90.0816H175.318V90.0816Z" fill="black"/>
<path d="M184.003 99.0329H182.231V88.6636H184.003V99.0329Z" fill="black"/>
<path d="M153.523 249.737H109.594V252.869H153.523V249.737Z" fill="#50E6FF"/>
<path d="M153.523 271.743H109.594V274.875H153.523V271.743Z" fill="#50E6FF"/>
<path d="M153.523 293.666H109.594V296.798H153.523V293.666Z" fill="#50E6FF"/>
<path d="M109.182 281.057C113.461 281.057 116.929 277.588 116.929 273.309C116.929 269.031 113.461 265.562 109.182 265.562C104.903 265.562 101.435 269.031 101.435 273.309C101.435 277.588 104.903 281.057 109.182 281.057Z" fill="#0078D4"/>
<path d="M153.111 281.057C157.389 281.057 160.858 277.588 160.858 273.309C160.858 269.031 157.389 265.562 153.111 265.562C148.832 265.562 145.363 269.031 145.363 273.309C145.363 277.588 148.832 281.057 153.111 281.057Z" fill="#0078D4"/>
<path d="M109.182 259.05C113.461 259.05 116.929 255.582 116.929 251.303C116.929 247.024 113.461 243.556 109.182 243.556C104.903 243.556 101.435 247.024 101.435 251.303C101.435 255.582 104.903 259.05 109.182 259.05Z" fill="#0078D4"/>
<path d="M153.111 259.05C157.389 259.05 160.858 255.582 160.858 251.303C160.858 247.024 157.389 243.556 153.111 243.556C148.832 243.556 145.363 247.024 145.363 251.303C145.363 255.582 148.832 259.05 153.111 259.05Z" fill="#0078D4"/>
<path d="M109.182 302.979C113.461 302.979 116.929 299.511 116.929 295.232C116.929 290.953 113.461 287.485 109.182 287.485C104.903 287.485 101.435 290.953 101.435 295.232C101.435 299.511 104.903 302.979 109.182 302.979Z" fill="#0078D4"/>
<path d="M153.111 302.979C157.389 302.979 160.858 299.511 160.858 295.232C160.858 290.953 157.389 287.485 153.111 287.485C148.832 287.485 145.363 290.953 145.363 295.232C145.363 299.511 148.832 302.979 153.111 302.979Z" fill="#0078D4"/>
<path d="M105.547 335.003H103.125L99.2266 329.878C99.0807 329.686 98.9922 329.556 98.9609 329.488H98.9297V335.003H97.0703V323.8H98.9297V329.066H98.9609C99.0234 328.951 99.112 328.824 99.2266 328.683L102.984 323.8H105.211L100.812 329.175L105.547 335.003ZM113.234 331.496H107.781C107.802 332.235 108.029 332.806 108.461 333.207C108.898 333.608 109.497 333.808 110.258 333.808C111.112 333.808 111.896 333.553 112.609 333.042V334.503C111.88 334.962 110.917 335.191 109.719 335.191C108.542 335.191 107.617 334.829 106.945 334.105C106.279 333.376 105.945 332.352 105.945 331.035C105.945 329.79 106.312 328.777 107.047 327.996C107.786 327.209 108.703 326.816 109.797 326.816C110.891 326.816 111.737 327.167 112.336 327.871C112.935 328.574 113.234 329.55 113.234 330.8V331.496ZM111.484 330.214C111.479 329.563 111.326 329.058 111.023 328.699C110.721 328.334 110.305 328.152 109.773 328.152C109.253 328.152 108.81 328.342 108.445 328.722C108.086 329.102 107.865 329.6 107.781 330.214H111.484ZM121.891 327.003L118.281 336.285C117.531 337.941 116.479 338.769 115.125 338.769C114.745 338.769 114.427 338.735 114.172 338.667V337.16C114.458 337.253 114.719 337.3 114.953 337.3C115.63 337.3 116.135 336.967 116.469 336.3L117.008 334.988L113.828 327.003H115.836L117.742 332.816C117.763 332.889 117.81 333.082 117.883 333.394H117.922C117.948 333.274 117.995 333.087 118.062 332.832L120.062 327.003H121.891ZM127.312 331.3H123.047V329.964H127.312V331.3ZM136.43 327.003L133.336 335.003H131.375L128.43 327.003H130.398L132.172 332.597C132.307 333.009 132.391 333.368 132.422 333.675H132.445C132.492 333.29 132.565 332.941 132.664 332.628L134.523 327.003H136.43ZM143.539 335.003H141.781V333.753H141.75C141.198 334.712 140.388 335.191 139.32 335.191C138.534 335.191 137.917 334.977 137.469 334.55C137.026 334.123 136.805 333.558 136.805 332.855C136.805 331.345 137.674 330.464 139.414 330.214L141.789 329.878C141.789 328.738 141.247 328.167 140.164 328.167C139.211 328.167 138.352 328.496 137.586 329.152V327.566C138.43 327.066 139.404 326.816 140.508 326.816C142.529 326.816 143.539 327.811 143.539 329.8V335.003ZM141.789 331.074L140.109 331.308C139.589 331.376 139.195 331.503 138.93 331.691C138.669 331.873 138.539 332.196 138.539 332.66C138.539 332.998 138.659 333.277 138.898 333.496C139.143 333.709 139.469 333.816 139.875 333.816C140.427 333.816 140.883 333.623 141.242 333.238C141.607 332.847 141.789 332.358 141.789 331.769V331.074ZM147.578 335.003H145.758V323.16H147.578V335.003ZM156.922 335.003H155.109V333.738H155.078C154.552 334.707 153.734 335.191 152.625 335.191C150.734 335.191 149.789 334.056 149.789 331.785V327.003H151.602V331.597C151.602 333.035 152.156 333.753 153.266 333.753C153.802 333.753 154.242 333.556 154.586 333.16C154.935 332.764 155.109 332.246 155.109 331.605V327.003H156.922V335.003ZM166.062 331.496H160.609C160.63 332.235 160.857 332.806 161.289 333.207C161.727 333.608 162.326 333.808 163.086 333.808C163.94 333.808 164.724 333.553 165.438 333.042V334.503C164.708 334.962 163.745 335.191 162.547 335.191C161.37 335.191 160.445 334.829 159.773 334.105C159.107 333.376 158.773 332.352 158.773 331.035C158.773 329.79 159.141 328.777 159.875 327.996C160.615 327.209 161.531 326.816 162.625 326.816C163.719 326.816 164.565 327.167 165.164 327.871C165.763 328.574 166.062 329.55 166.062 330.8V331.496ZM164.312 330.214C164.307 329.563 164.154 329.058 163.852 328.699C163.549 328.334 163.133 328.152 162.602 328.152C162.081 328.152 161.638 328.342 161.273 328.722C160.914 329.102 160.693 329.6 160.609 330.214H164.312Z" fill="black"/>
<path d="M355.932 279.362H334.586V282.494H355.932V279.362Z" fill="#50E6FF"/>
<path d="M357.163 248.059L333.415 263.994L335.16 266.595L358.908 250.66L357.163 248.059Z" fill="#50E6FF"/>
<path d="M334.222 263.784L334.212 266.916L358.031 266.994L358.041 263.862L334.222 263.784Z" fill="#50E6FF"/>
<path d="M333.796 263.674L310.018 271.826L311.034 274.788L334.811 266.636L333.796 263.674Z" fill="#50E6FF"/>
<path d="M357.168 298.317L333.514 282.74L310.025 274.828L311.097 271.861L334.916 279.856L358.899 295.68L357.168 298.317Z" fill="#50E6FF"/>
<path d="M357.91 256.037C361.324 256.037 364.092 253.27 364.092 249.856C364.092 246.442 361.324 243.675 357.91 243.675C354.496 243.675 351.729 246.442 351.729 249.856C351.729 253.27 354.496 256.037 357.91 256.037Z" fill="#0078D4"/>
<path d="M357.91 271.367C361.324 271.367 364.092 268.6 364.092 265.186C364.092 261.772 361.324 259.004 357.91 259.004C354.496 259.004 351.729 261.772 351.729 265.186C351.729 268.6 354.496 271.367 357.91 271.367Z" fill="#0078D4"/>
<path d="M357.91 287.191C361.324 287.191 364.092 284.423 364.092 281.009C364.092 277.596 361.324 274.828 357.91 274.828C354.496 274.828 351.729 277.596 351.729 281.009C351.729 284.423 354.496 287.191 357.91 287.191Z" fill="#0078D4"/>
<path d="M334.421 271.367C337.835 271.367 340.602 268.6 340.602 265.186C340.602 261.772 337.835 259.004 334.421 259.004C331.007 259.004 328.24 261.772 328.24 265.186C328.24 268.6 331.007 271.367 334.421 271.367Z" fill="#0078D4"/>
<path d="M334.421 287.191C337.835 287.191 340.602 284.423 340.602 281.009C340.602 277.596 337.835 274.828 334.421 274.828C331.007 274.828 328.24 277.596 328.24 281.009C328.24 284.423 331.007 287.191 334.421 287.191Z" fill="#0078D4"/>
<path d="M357.91 303.18C361.324 303.18 364.092 300.413 364.092 296.999C364.092 293.585 361.324 290.817 357.91 290.817C354.496 290.817 351.729 293.585 351.729 296.999C351.729 300.413 354.496 303.18 357.91 303.18Z" fill="#0078D4"/>
<path d="M310.602 279.444C314.016 279.444 316.784 276.677 316.784 273.263C316.784 269.849 314.016 267.082 310.602 267.082C307.188 267.082 304.421 269.849 304.421 273.263C304.421 276.677 307.188 279.444 310.602 279.444Z" fill="#0078D4"/>
<path d="M289.493 334.535C288.649 334.972 287.6 335.191 286.344 335.191C284.719 335.191 283.417 334.678 282.438 333.652C281.459 332.626 280.969 331.279 280.969 329.613C280.969 327.821 281.519 326.373 282.618 325.269C283.722 324.165 285.115 323.613 286.798 323.613C287.881 323.613 288.779 323.766 289.493 324.074V325.917C288.738 325.47 287.904 325.246 286.993 325.246C285.779 325.246 284.795 325.634 284.04 326.41C283.29 327.186 282.915 328.222 282.915 329.519C282.915 330.753 283.266 331.738 283.969 332.472C284.673 333.201 285.597 333.566 286.743 333.566C287.8 333.566 288.717 333.316 289.493 332.816V334.535ZM294.962 335.191C293.727 335.191 292.74 334.819 292.001 334.074C291.266 333.324 290.899 332.332 290.899 331.097C290.899 329.753 291.282 328.704 292.048 327.949C292.818 327.194 293.855 326.816 295.157 326.816C296.407 326.816 297.381 327.183 298.079 327.917C298.777 328.652 299.126 329.67 299.126 330.972C299.126 332.248 298.748 333.272 297.993 334.042C297.243 334.808 296.233 335.191 294.962 335.191ZM295.048 328.261C294.339 328.261 293.779 328.509 293.368 329.003C292.956 329.498 292.751 330.181 292.751 331.05C292.751 331.889 292.959 332.55 293.376 333.035C293.792 333.514 294.35 333.753 295.048 333.753C295.761 333.753 296.308 333.516 296.688 333.042C297.074 332.569 297.266 331.894 297.266 331.019C297.266 330.139 297.074 329.459 296.688 328.98C296.308 328.501 295.761 328.261 295.048 328.261ZM302.798 335.003H300.977V323.16H302.798V335.003ZM312.141 335.003H310.329V333.738H310.298C309.772 334.707 308.954 335.191 307.844 335.191C305.954 335.191 305.009 334.056 305.009 331.785V327.003H306.821V331.597C306.821 333.035 307.376 333.753 308.485 333.753C309.022 333.753 309.462 333.556 309.805 333.16C310.154 332.764 310.329 332.246 310.329 331.605V327.003H312.141V335.003ZM326.469 335.003H324.657V330.644C324.657 329.806 324.537 329.199 324.298 328.824C324.063 328.449 323.665 328.261 323.102 328.261C322.628 328.261 322.225 328.498 321.891 328.972C321.563 329.446 321.399 330.014 321.399 330.675V335.003H319.579V330.496C319.579 329.006 319.053 328.261 318.001 328.261C317.511 328.261 317.108 328.485 316.79 328.933C316.477 329.381 316.321 329.962 316.321 330.675V335.003H314.509V327.003H316.321V328.269H316.352C316.93 327.3 317.772 326.816 318.876 326.816C319.428 326.816 319.91 326.97 320.321 327.277C320.738 327.579 321.022 327.977 321.173 328.472C321.766 327.368 322.652 326.816 323.829 326.816C325.589 326.816 326.469 327.902 326.469 330.074V335.003ZM335.805 335.003H333.993V330.496C333.993 329.001 333.464 328.253 332.407 328.253C331.855 328.253 331.399 328.462 331.04 328.878C330.68 329.29 330.501 329.811 330.501 330.441V335.003H328.68V327.003H330.501V328.332H330.532C331.131 327.321 331.996 326.816 333.126 326.816C333.996 326.816 334.66 327.1 335.118 327.667C335.576 328.23 335.805 329.045 335.805 330.113V335.003ZM342.235 331.3H337.969V329.964H342.235V331.3ZM348.985 324.636C348.74 324.496 348.462 324.425 348.149 324.425C347.269 324.425 346.829 324.923 346.829 325.917V327.003H348.688V328.425H346.837V335.003H345.024V328.425H343.657V327.003H345.024V325.707C345.024 324.863 345.3 324.199 345.852 323.714C346.404 323.225 347.094 322.98 347.923 322.98C348.371 322.98 348.725 323.029 348.985 323.128V324.636ZM356.118 335.003H354.36V333.753H354.329C353.777 334.712 352.967 335.191 351.899 335.191C351.113 335.191 350.496 334.977 350.048 334.55C349.605 334.123 349.384 333.558 349.384 332.855C349.384 331.345 350.253 330.464 351.993 330.214L354.368 329.878C354.368 328.738 353.826 328.167 352.743 328.167C351.79 328.167 350.93 328.496 350.165 329.152V327.566C351.009 327.066 351.983 326.816 353.087 326.816C355.108 326.816 356.118 327.811 356.118 329.8V335.003ZM354.368 331.074L352.688 331.308C352.167 331.376 351.774 331.503 351.509 331.691C351.248 331.873 351.118 332.196 351.118 332.66C351.118 332.998 351.238 333.277 351.477 333.496C351.722 333.709 352.048 333.816 352.454 333.816C353.006 333.816 353.462 333.623 353.821 333.238C354.186 332.847 354.368 332.358 354.368 331.769V331.074ZM370.298 335.003H368.485V330.644C368.485 329.806 368.365 329.199 368.126 328.824C367.891 328.449 367.493 328.261 366.93 328.261C366.456 328.261 366.053 328.498 365.719 328.972C365.391 329.446 365.227 330.014 365.227 330.675V335.003H363.407V330.496C363.407 329.006 362.881 328.261 361.829 328.261C361.339 328.261 360.936 328.485 360.618 328.933C360.305 329.381 360.149 329.962 360.149 330.675V335.003H358.337V327.003H360.149V328.269H360.18C360.759 327.3 361.6 326.816 362.704 326.816C363.256 326.816 363.738 326.97 364.149 327.277C364.566 327.579 364.85 327.977 365.001 328.472C365.594 327.368 366.48 326.816 367.657 326.816C369.417 326.816 370.298 327.902 370.298 330.074V335.003ZM373.423 325.324C373.126 325.324 372.871 325.227 372.657 325.035C372.449 324.842 372.344 324.597 372.344 324.3C372.344 324.003 372.449 323.756 372.657 323.558C372.871 323.36 373.126 323.261 373.423 323.261C373.73 323.261 373.99 323.36 374.204 323.558C374.417 323.756 374.524 324.003 374.524 324.3C374.524 324.582 374.417 324.824 374.204 325.027C373.99 325.225 373.73 325.324 373.423 325.324ZM374.321 335.003H372.509V327.003H374.321V335.003ZM378.516 335.003H376.696V323.16H378.516V335.003ZM387.813 327.003L384.204 336.285C383.454 337.941 382.402 338.769 381.048 338.769C380.667 338.769 380.35 338.735 380.094 338.667V337.16C380.381 337.253 380.641 337.3 380.876 337.3C381.553 337.3 382.058 336.967 382.391 336.3L382.93 334.988L379.751 327.003H381.759L383.665 332.816C383.686 332.889 383.733 333.082 383.805 333.394H383.844C383.871 333.274 383.917 333.087 383.985 332.832L385.985 327.003H387.813Z" fill="black"/>
<path d="M539.619 263.859H514.282V266.996H539.619V263.859Z" fill="#50E6FF"/>
<path d="M564.956 270.297C567.599 270.297 569.742 268.154 569.742 265.51C569.742 262.866 567.599 260.723 564.956 260.723C562.312 260.723 560.169 262.866 560.169 265.51C560.169 268.154 562.312 270.297 564.956 270.297Z" fill="#0078D4"/>
<path d="M552.493 270.297C555.137 270.297 557.28 268.154 557.28 265.51C557.28 262.866 555.137 260.723 552.493 260.723C549.85 260.723 547.707 262.866 547.707 265.51C547.707 268.154 549.85 270.297 552.493 270.297Z" fill="#0078D4"/>
<path d="M539.866 270.297C542.51 270.297 544.653 268.154 544.653 265.51C544.653 262.866 542.51 260.723 539.866 260.723C537.222 260.723 535.079 262.866 535.079 265.51C535.079 268.154 537.222 270.297 539.866 270.297Z" fill="#0078D4"/>
<path d="M514.859 270.297C517.503 270.297 519.646 268.154 519.646 265.51C519.646 262.866 517.503 260.723 514.859 260.723C512.216 260.723 510.073 262.866 510.073 265.51C510.073 268.154 512.216 270.297 514.859 270.297Z" fill="#0078D4"/>
<path d="M539.619 279.541H514.282V282.677H539.619V279.541Z" fill="#50E6FF"/>
<path d="M564.956 285.895C567.599 285.895 569.742 283.752 569.742 281.108C569.742 278.464 567.599 276.321 564.956 276.321C562.312 276.321 560.169 278.464 560.169 281.108C560.169 283.752 562.312 285.895 564.956 285.895Z" fill="#0078D4"/>
<path d="M552.493 285.895C555.137 285.895 557.28 283.752 557.28 281.108C557.28 278.464 555.137 276.321 552.493 276.321C549.85 276.321 547.707 278.464 547.707 281.108C547.707 283.752 549.85 285.895 552.493 285.895Z" fill="#0078D4"/>
<path d="M539.866 285.895C542.51 285.895 544.653 283.752 544.653 281.108C544.653 278.464 542.51 276.321 539.866 276.321C537.222 276.321 535.079 278.464 535.079 281.108C535.079 283.752 537.222 285.895 539.866 285.895Z" fill="#0078D4"/>
<path d="M514.859 285.895C517.503 285.895 519.646 283.752 519.646 281.108C519.646 278.464 517.503 276.321 514.859 276.321C512.216 276.321 510.073 278.464 510.073 281.108C510.073 283.752 512.216 285.895 514.859 285.895Z" fill="#0078D4"/>
<path d="M539.619 295.386H514.282V298.522H539.619V295.386Z" fill="#50E6FF"/>
<path d="M564.956 301.741C567.599 301.741 569.742 299.597 569.742 296.954C569.742 294.31 567.599 292.167 564.956 292.167C562.312 292.167 560.169 294.31 560.169 296.954C560.169 299.597 562.312 301.741 564.956 301.741Z" fill="#0078D4"/>
<path d="M552.493 301.741C555.137 301.741 557.28 299.597 557.28 296.954C557.28 294.31 555.137 292.167 552.493 292.167C549.85 292.167 547.707 294.31 547.707 296.954C547.707 299.597 549.85 301.741 552.493 301.741Z" fill="#0078D4"/>
<path d="M539.866 301.741C542.51 301.741 544.653 299.597 544.653 296.954C544.653 294.31 542.51 292.167 539.866 292.167C537.222 292.167 535.079 294.31 535.079 296.954C535.079 299.597 537.222 301.741 539.866 301.741Z" fill="#0078D4"/>
<path d="M514.859 301.741C517.503 301.741 519.646 299.597 519.646 296.954C519.646 294.31 517.503 292.167 514.859 292.167C512.216 292.167 510.073 294.31 510.073 296.954C510.073 299.597 512.216 301.741 514.859 301.741Z" fill="#0078D4"/>
<path d="M539.619 247.931H514.282V251.067H539.619V247.931Z" fill="#50E6FF"/>
<path d="M564.956 254.368C567.599 254.368 569.742 252.225 569.742 249.581C569.742 246.938 567.599 244.794 564.956 244.794C562.312 244.794 560.169 246.938 560.169 249.581C560.169 252.225 562.312 254.368 564.956 254.368Z" fill="#0078D4"/>
<path d="M552.493 254.368C555.137 254.368 557.28 252.225 557.28 249.581C557.28 246.938 555.137 244.794 552.493 244.794C549.85 244.794 547.707 246.938 547.707 249.581C547.707 252.225 549.85 254.368 552.493 254.368Z" fill="#0078D4"/>
<path d="M539.866 254.368C542.51 254.368 544.653 252.225 544.653 249.581C544.653 246.938 542.51 244.794 539.866 244.794C537.222 244.794 535.079 246.938 535.079 249.581C535.079 252.225 537.222 254.368 539.866 254.368Z" fill="#0078D4"/>
<path d="M514.859 254.368C517.503 254.368 519.646 252.225 519.646 249.581C519.646 246.938 517.503 244.794 514.859 244.794C512.216 244.794 510.073 246.938 510.073 249.581C510.073 252.225 512.216 254.368 514.859 254.368Z" fill="#0078D4"/>
<path d="M503.29 335.003V323.8H506.525C510.655 323.8 512.72 325.621 512.72 329.261C512.72 330.99 512.147 332.381 511.001 333.433C509.855 334.48 508.319 335.003 506.392 335.003H503.29ZM505.142 325.378V333.433H506.626C507.934 333.433 508.949 333.074 509.673 332.355C510.402 331.636 510.767 330.621 510.767 329.308C510.767 326.688 509.41 325.378 506.697 325.378H505.142ZM518.118 335.191C516.884 335.191 515.897 334.819 515.157 334.074C514.423 333.324 514.056 332.332 514.056 331.097C514.056 329.753 514.439 328.704 515.204 327.949C515.975 327.194 517.012 326.816 518.314 326.816C519.564 326.816 520.538 327.183 521.236 327.917C521.934 328.652 522.282 329.67 522.282 330.972C522.282 332.248 521.905 333.272 521.15 334.042C520.4 334.808 519.389 335.191 518.118 335.191ZM518.204 328.261C517.496 328.261 516.936 328.509 516.525 329.003C516.113 329.498 515.907 330.181 515.907 331.05C515.907 331.889 516.116 332.55 516.532 333.035C516.949 333.514 517.506 333.753 518.204 333.753C518.918 333.753 519.465 333.516 519.845 333.042C520.23 332.569 520.423 331.894 520.423 331.019C520.423 330.139 520.23 329.459 519.845 328.98C519.465 328.501 518.918 328.261 518.204 328.261ZM529.861 334.636C529.22 335.006 528.462 335.191 527.587 335.191C526.4 335.191 525.441 334.821 524.712 334.082C523.983 333.337 523.618 332.373 523.618 331.191C523.618 329.873 524.009 328.816 524.79 328.019C525.577 327.217 526.626 326.816 527.939 326.816C528.668 326.816 529.311 326.944 529.868 327.199V328.886C529.311 328.47 528.717 328.261 528.087 328.261C527.322 328.261 526.694 328.522 526.204 329.042C525.715 329.558 525.47 330.235 525.47 331.074C525.47 331.902 525.699 332.556 526.157 333.035C526.621 333.514 527.241 333.753 528.017 333.753C528.668 333.753 529.282 333.522 529.861 333.058V334.636ZM538.642 335.003H536.829V333.738H536.798C536.272 334.707 535.454 335.191 534.345 335.191C532.454 335.191 531.509 334.056 531.509 331.785V327.003H533.322V331.597C533.322 333.035 533.876 333.753 534.986 333.753C535.522 333.753 535.962 333.556 536.306 333.16C536.655 332.764 536.829 332.246 536.829 331.605V327.003H538.642V335.003ZM552.97 335.003H551.157V330.644C551.157 329.806 551.038 329.199 550.798 328.824C550.564 328.449 550.165 328.261 549.603 328.261C549.129 328.261 548.725 328.498 548.392 328.972C548.064 329.446 547.9 330.014 547.9 330.675V335.003H546.079V330.496C546.079 329.006 545.553 328.261 544.501 328.261C544.012 328.261 543.608 328.485 543.29 328.933C542.978 329.381 542.822 329.962 542.822 330.675V335.003H541.009V327.003H542.822V328.269H542.853C543.431 327.3 544.272 326.816 545.376 326.816C545.928 326.816 546.41 326.97 546.822 327.277C547.238 327.579 547.522 327.977 547.673 328.472C548.267 327.368 549.152 326.816 550.329 326.816C552.09 326.816 552.97 327.902 552.97 330.074V335.003ZM561.954 331.496H556.501C556.522 332.235 556.749 332.806 557.181 333.207C557.618 333.608 558.217 333.808 558.978 333.808C559.832 333.808 560.616 333.553 561.329 333.042V334.503C560.6 334.962 559.637 335.191 558.439 335.191C557.262 335.191 556.337 334.829 555.665 334.105C554.999 333.376 554.665 332.352 554.665 331.035C554.665 329.79 555.032 328.777 555.767 327.996C556.506 327.209 557.423 326.816 558.517 326.816C559.611 326.816 560.457 327.167 561.056 327.871C561.655 328.574 561.954 329.55 561.954 330.8V331.496ZM560.204 330.214C560.199 329.563 560.045 329.058 559.743 328.699C559.441 328.334 559.025 328.152 558.493 328.152C557.973 328.152 557.53 328.342 557.165 328.722C556.806 329.102 556.585 329.6 556.501 330.214H560.204ZM570.806 335.003H568.993V330.496C568.993 329.001 568.465 328.253 567.407 328.253C566.855 328.253 566.4 328.462 566.04 328.878C565.681 329.29 565.501 329.811 565.501 330.441V335.003H563.681V327.003H565.501V328.332H565.532C566.131 327.321 566.996 326.816 568.126 326.816C568.996 326.816 569.66 327.1 570.118 327.667C570.577 328.23 570.806 329.045 570.806 330.113V335.003ZM577.243 334.917C576.889 335.095 576.423 335.183 575.845 335.183C574.293 335.183 573.517 334.438 573.517 332.949V328.425H572.181V327.003H573.517V325.152L575.329 324.636V327.003H577.243V328.425H575.329V332.425C575.329 332.899 575.415 333.238 575.587 333.441C575.759 333.644 576.045 333.746 576.447 333.746C576.754 333.746 577.019 333.657 577.243 333.48V334.917Z" fill="black"/>
<path d="M745.74 292.168H698.45L721.229 255.276L745.74 292.168ZM704.062 289.032H739.881L721.311 261.136L704.062 289.032Z" fill="#50E6FF"/>
<path d="M698.425 247.927L697.256 250.837L720.922 260.342L722.091 257.431L698.425 247.927Z" fill="#50E6FF"/>
<path d="M698.037 255.854C701.456 255.854 704.227 253.082 704.227 249.664C704.227 246.245 701.456 243.474 698.037 243.474C694.619 243.474 691.848 246.245 691.848 249.664C691.848 253.082 694.619 255.854 698.037 255.854Z" fill="#0078D4"/>
<path d="M721.724 265.18C725.142 265.18 727.914 262.409 727.914 258.99C727.914 255.572 725.142 252.8 721.724 252.8C718.305 252.8 715.534 255.572 715.534 258.99C715.534 262.409 718.305 265.18 721.724 265.18Z" fill="#0078D4"/>
<path d="M701.174 297.119C704.592 297.119 707.364 294.348 707.364 290.93C707.364 287.511 704.592 284.74 701.174 284.74C697.755 284.74 694.984 287.511 694.984 290.93C694.984 294.348 697.755 297.119 701.174 297.119Z" fill="#0078D4"/>
<path d="M742.192 297.119C745.61 297.119 748.381 294.348 748.381 290.93C748.381 287.511 745.61 284.74 742.192 284.74C738.773 284.74 736.002 287.511 736.002 290.93C736.002 294.348 738.773 297.119 742.192 297.119Z" fill="#0078D4"/>
<path d="M709.143 334.238C707.976 334.873 706.676 335.191 705.244 335.191C703.588 335.191 702.247 334.675 701.221 333.644C700.195 332.613 699.682 331.248 699.682 329.55C699.682 327.816 700.242 326.394 701.361 325.285C702.486 324.17 703.913 323.613 705.643 323.613C706.887 323.613 707.934 323.795 708.783 324.16V326.074C707.924 325.501 706.9 325.214 705.713 325.214C704.52 325.214 703.541 325.608 702.775 326.394C702.015 327.181 701.635 328.199 701.635 329.449C701.635 330.735 701.963 331.748 702.619 332.488C703.275 333.222 704.166 333.589 705.291 333.589C706.062 333.589 706.729 333.441 707.291 333.144V330.48H704.932V328.917H709.143V334.238ZM715.994 328.73C715.775 328.558 715.46 328.472 715.049 328.472C714.512 328.472 714.064 328.714 713.705 329.199C713.346 329.683 713.166 330.342 713.166 331.175V335.003H711.354V327.003H713.166V328.652H713.197C713.374 328.089 713.645 327.652 714.01 327.339C714.38 327.022 714.791 326.863 715.244 326.863C715.572 326.863 715.822 326.912 715.994 327.011V328.73ZM723.416 335.003H721.658V333.753H721.627C721.075 334.712 720.265 335.191 719.197 335.191C718.411 335.191 717.794 334.977 717.346 334.55C716.903 334.123 716.682 333.558 716.682 332.855C716.682 331.345 717.551 330.464 719.291 330.214L721.666 329.878C721.666 328.738 721.124 328.167 720.041 328.167C719.088 328.167 718.229 328.496 717.463 329.152V327.566C718.307 327.066 719.281 326.816 720.385 326.816C722.406 326.816 723.416 327.811 723.416 329.8V335.003ZM721.666 331.074L719.986 331.308C719.465 331.376 719.072 331.503 718.807 331.691C718.546 331.873 718.416 332.196 718.416 332.66C718.416 332.998 718.536 333.277 718.775 333.496C719.02 333.709 719.346 333.816 719.752 333.816C720.304 333.816 720.76 333.623 721.119 333.238C721.484 332.847 721.666 332.358 721.666 331.769V331.074ZM727.479 333.824H727.447V338.683H725.635V327.003H727.447V328.41H727.479C728.098 327.347 729.005 326.816 730.197 326.816C731.213 326.816 732.005 327.173 732.572 327.886C733.14 328.6 733.424 329.558 733.424 330.761C733.424 332.095 733.104 333.162 732.463 333.964C731.822 334.766 730.947 335.167 729.838 335.167C728.817 335.167 728.031 334.72 727.479 333.824ZM727.432 330.667V331.66C727.432 332.243 727.617 332.738 727.986 333.144C728.361 333.55 728.835 333.753 729.408 333.753C730.08 333.753 730.606 333.493 730.986 332.972C731.372 332.446 731.564 331.714 731.564 330.777C731.564 329.99 731.385 329.376 731.025 328.933C730.671 328.485 730.189 328.261 729.58 328.261C728.934 328.261 728.413 328.49 728.018 328.949C727.627 329.407 727.432 329.98 727.432 330.667ZM742.385 335.003H740.572V330.628C740.572 329.045 740.044 328.253 738.986 328.253C738.455 328.253 738.007 328.483 737.643 328.941C737.278 329.399 737.096 329.985 737.096 330.699V335.003H735.275V323.16H737.096V328.332H737.127C737.731 327.321 738.596 326.816 739.721 326.816C741.497 326.816 742.385 327.902 742.385 330.074V335.003Z" fill="black"/>
<path d="M423.353 177.271H423.853" stroke="#9F9F9F" stroke-miterlimit="10"/>
<path d="M18.1526 193.271H829.053" stroke="#9F9F9F" stroke-miterlimit="10" stroke-dasharray="1 1"/>
<path d="M734.782 177.271H735.282" stroke="#9F9F9F" stroke-miterlimit="10"/>
</svg>
